<?xml version="1.0" encoding="utf-8" standalone="no"?>
<!DOCTYPE svg PUBLIC "-//W3C//DTD SVG 1.1//EN"
  "http://www.w3.org/Graphics/SVG/1.1/DTD/svg11.dtd">
<!-- Created with matplotlib (http://matplotlib.org/) -->
<svg height="430pt" version="1.1" viewBox="0 0 288 430" width="288pt" xmlns="http://www.w3.org/2000/svg" xmlns:xlink="http://www.w3.org/1999/xlink">
 <defs>
  <style type="text/css">
*{stroke-linecap:butt;stroke-linejoin:round;}
  </style>
 </defs>
 <g id="figure_1">
  <g id="patch_1">
   <path d="M 0 430.56 
L 288 430.56 
L 288 0 
L 0 0 
z
" style="fill:#ffffff;"/>
  </g>
  <g id="axes_1">
   <g id="patch_2">
    <path clip-path="url(#paa4624950e)" d="M 48.435623 376.943094 
L 253.040604 376.943094 
L 253.040604 51.6672 
L 48.435623 51.6672 
z
" style="fill:none;stroke:#000000;stroke-linejoin:miter;"/>
   </g>
   <g id="line2d_1">
    <defs>
     <path d="M 0 7.5 
C 1.989023 7.5 3.896849 6.709753 5.303301 5.303301 
C 6.709753 3.896849 7.5 1.989023 7.5 0 
C 7.5 -1.989023 6.709753 -3.896849 5.303301 -5.303301 
C 3.896849 -6.709753 1.989023 -7.5 0 -7.5 
C -1.989023 -7.5 -3.896849 -6.709753 -5.303301 -5.303301 
C -6.709753 -3.896849 -7.5 -1.989023 -7.5 0 
C -7.5 1.989023 -6.709753 3.896849 -5.303301 5.303301 
C -3.896849 6.709753 -1.989023 7.5 0 7.5 
z
" id="m3fd8ff0168" style="stroke:#000000;"/>
    </defs>
    <g clip-path="url(#paa4624950e)">
     <use style="fill:#ffffff;stroke:#000000;" x="105.888199" xlink:href="#m3fd8ff0168" y="272.992425"/>
     <use style="fill:#ffffff;stroke:#000000;" x="149.796679" xlink:href="#m3fd8ff0168" y="138.33446"/>
     <use style="fill:#ffffff;stroke:#000000;" x="193.697628" xlink:href="#m3fd8ff0168" y="272.992425"/>
     <use style="fill:#ffffff;stroke:#000000;" x="78.806282" xlink:href="#m3fd8ff0168" y="189.770587"/>
     <use style="fill:#ffffff;stroke:#000000;" x="220.83101" xlink:href="#m3fd8ff0168" y="189.770587"/>
    </g>
   </g>
   <g id="line2d_2">
    <defs>
     <path d="M 0 0.5 
C 0.132602 0.5 0.25979 0.447317 0.353553 0.353553 
C 0.447317 0.25979 0.5 0.132602 0.5 0 
C 0.5 -0.132602 0.447317 -0.25979 0.353553 -0.353553 
C 0.25979 -0.447317 0.132602 -0.5 0 -0.5 
C -0.132602 -0.5 -0.25979 -0.447317 -0.353553 -0.353553 
C -0.447317 -0.25979 -0.5 -0.132602 -0.5 0 
C -0.5 0.132602 -0.447317 0.25979 -0.353553 0.353553 
C -0.25979 0.447317 -0.132602 0.5 0 0.5 
z
" id="mf3df3ebfeb" style="stroke:#ff0000;"/>
    </defs>
    <g clip-path="url(#paa4624950e)">
     <use style="fill:#ff0000;stroke:#ff0000;" x="150.110491" xlink:href="#mf3df3ebfeb" y="326.900649"/>
    </g>
   </g>
   <g id="line2d_3">
    <defs>
     <path d="M 0 0.5 
C 0.132602 0.5 0.25979 0.447317 0.353553 0.353553 
C 0.447317 0.25979 0.5 0.132602 0.5 0 
C 0.5 -0.132602 0.447317 -0.25979 0.353553 -0.353553 
C 0.25979 -0.447317 0.132602 -0.5 0 -0.5 
C -0.132602 -0.5 -0.25979 -0.447317 -0.353553 -0.353553 
C -0.447317 -0.25979 -0.5 -0.132602 -0.5 0 
C -0.5 0.132602 -0.447317 0.25979 -0.353553 0.353553 
C -0.25979 0.447317 -0.132602 0.5 0 0.5 
z
" id="m90696f3cd4" style="stroke:#0000ff;"/>
    </defs>
    <g clip-path="url(#paa4624950e)">
     <use style="fill:#0000ff;stroke:#0000ff;" x="150.110491" xlink:href="#m90696f3cd4" y="89.199034"/>
    </g>
   </g>
   <g id="line2d_4">
    <defs>
     <path d="M 0 7.5 
C 1.989023 7.5 3.896849 6.709753 5.303301 5.303301 
C 6.709753 3.896849 7.5 1.989023 7.5 0 
C 7.5 -1.989023 6.709753 -3.896849 5.303301 -5.303301 
C 3.896849 -6.709753 1.989023 -7.5 0 -7.5 
C -1.989023 -7.5 -3.896849 -6.709753 -5.303301 -5.303301 
C -6.709753 -3.896849 -7.5 -1.989023 -7.5 0 
C -7.5 1.989023 -6.709753 3.896849 -5.303301 5.303301 
C -3.896849 6.709753 -1.989023 7.5 0 7.5 
z
" id="mab2a8bd93c" style="stroke:#000000;"/>
    </defs>
    <g clip-path="url(#paa4624950e)">
     <use style="stroke:#000000;" x="78.806282" xlink:href="#mab2a8bd93c" y="189.770587"/>
    </g>
   </g>
   <g id="line2d_5">
    <defs>
     <path d="M 0 7.5 
C 1.989023 7.5 3.896849 6.709753 5.303301 5.303301 
C 6.709753 3.896849 7.5 1.989023 7.5 0 
C 7.5 -1.989023 6.709753 -3.896849 5.303301 -5.303301 
C 3.896849 -6.709753 1.989023 -7.5 0 -7.5 
C -1.989023 -7.5 -3.896849 -6.709753 -5.303301 -5.303301 
C -6.709753 -3.896849 -7.5 -1.989023 -7.5 0 
C -7.5 1.989023 -6.709753 3.896849 -5.303301 5.303301 
C -3.896849 6.709753 -1.989023 7.5 0 7.5 
z
" id="mf2f7604ef5" style="stroke:#000000;"/>
    </defs>
    <g clip-path="url(#paa4624950e)">
     <use style="fill:#cccccc;stroke:#000000;" x="220.83101" xlink:href="#mf2f7604ef5" y="189.770587"/>
    </g>
   </g>
  </g>
 </g>
 <defs>
  <clipPath id="paa4624950e">
   <rect height="331.5312" width="223.2" x="36" y="51.6672"/>
  </clipPath>
 </defs>
</svg>
