<?xml version="1.0" encoding="utf-8" standalone="no"?>
<!DOCTYPE svg PUBLIC "-//W3C//DTD SVG 1.1//EN"
  "http://www.w3.org/Graphics/SVG/1.1/DTD/svg11.dtd">
<!-- Created with matplotlib (http://matplotlib.org/) -->
<svg height="286pt" version="1.1" viewBox="0 0 432 286" width="432pt" xmlns="http://www.w3.org/2000/svg" xmlns:xlink="http://www.w3.org/1999/xlink">
 <defs>
  <style type="text/css">
*{stroke-linecap:butt;stroke-linejoin:round;}
  </style>
 </defs>
 <g id="figure_1">
  <g id="patch_1">
   <path d="M 0 286.56 
L 432 286.56 
L 432 0 
L 0 0 
z
" style="fill:#ffffff;"/>
  </g>
  <g id="axes_1">
   <g id="patch_2">
    <path clip-path="url(#pbf35e82f5d)" d="M 61.006 245.2675 
L 381.794 245.2675 
L 381.794 44.1581 
L 61.006 44.1581 
z
" style="fill:none;stroke:#000000;stroke-linejoin:miter;"/>
   </g>
   <g id="line2d_1">
    <path clip-path="url(#pbf35e82f5d)" d="M 276.730855 215.337202 
L 277.158315 217.558108 
L 277.775109 219.41309 
L 278.504004 220.978134 
L 279.352166 222.337999 
L 280.388265 223.584625 
L 281.421756 224.461413 
L 282.485555 225.055371 
L 283.541414 225.384579 
L 284.767413 225.497318 
L 285.870795 225.387337 
L 286.940558 225.059551 
L 287.672126 224.607215 
L 288.245049 223.982712 
L 289.319051 222.327796 
L 290.258725 220.453613 
L 291.037796 218.3748 
L 291.649851 216.113321 
L 292.166033 213.32322 
L 292.68036 209.160378 
L 293.12888 204.235897 
L 293.368885 200.368146 
L 294.469273 199.577309 
L 295.416938 198.608169 
L 296.098488 197.577432 
L 296.669605 196.212759 
L 297.061058 194.658583 
L 297.504752 192.500189 
L 298.021378 191.810367 
L 298.865605 191.09329 
L 299.836331 190.557711 
L 301.329089 190.022217 
L 302.895258 189.679985 
L 304.978151 189.443138 
L 308.537955 189.122368 
L 309.36055 188.58392 
L 309.970855 187.813453 
L 310.27759 187.009233 
L 310.358515 186.275605 
L 310.186546 185.307488 
L 309.715401 184.444518 
L 308.996031 183.774668 
L 308.218752 183.404953 
L 307.264089 183.212821 
L 299.137097 181.845238 
L 299.428459 175.807225 
L 299.521103 169.145209 
L 299.421604 164.0914 
L 299.193345 163.39002 
L 298.803995 162.762422 
L 298.17316 162.177494 
L 297.407166 161.786048 
L 296.561354 161.62923 
L 295.818933 161.685965 
L 289.256412 162.849816 
L 288.281073 162.985555 
L 287.603014 163.277076 
L 286.930113 163.813212 
L 286.489727 164.40506 
L 286.201419 165.086594 
L 285.357549 167.535242 
L 284.358415 169.785758 
L 283.483432 171.274232 
L 282.434076 172.644224 
L 281.467197 173.594708 
L 280.852618 173.977031 
L 279.007205 174.101227 
L 277.31448 174.439459 
L 275.677808 174.987401 
L 274.121398 175.733577 
L 272.666301 176.662851 
L 271.331774 177.757268 
L 270.133014 178.99955 
L 269.085125 180.371471 
L 268.202428 181.854988 
L 267.499216 183.431691 
L 266.990196 185.080971 
L 266.787388 185.890128 
L 260.625033 185.612905 
L 252.852814 185.503949 
L 251.518581 185.473957 
L 251.422403 165.123406 
L 251.094749 164.327808 
L 250.648179 163.73991 
L 249.966437 163.215712 
L 249.167055 162.897459 
L 248.308778 162.813175 
L 233.384956 162.834311 
L 233.66912 160.887469 
L 234.360103 157.251837 
L 235.194875 154.027798 
L 236.156895 151.228045 
L 237.205363 148.859543 
L 238.347167 146.81325 
L 239.543658 145.081511 
L 240.451047 144.050877 
L 241.468635 143.646609 
L 243.148667 143.247114 
L 245.359427 142.658273 
L 246.347993 142.090347 
L 248.038134 140.850231 
L 249.575347 139.424682 
L 250.943262 137.836475 
L 252.199775 136.006454 
L 253.261986 134.057442 
L 254.182371 131.901924 
L 254.945546 129.556277 
L 255.541733 127.035659 
L 255.991772 124.109735 
L 256.045108 123.619016 
L 258.42358 124.268836 
L 260.384203 125.013853 
L 262.025483 125.884362 
L 263.230491 126.742071 
L 264.287739 127.77617 
L 265.010882 128.774218 
L 265.337376 129.547931 
L 265.521484 131.140618 
L 265.964192 132.935962 
L 266.588795 134.545104 
L 267.407229 136.065195 
L 268.407618 137.471451 
L 269.578085 138.740049 
L 270.903993 139.844841 
L 272.367603 140.759411 
L 273.829715 141.416484 
L 275.48779 141.894932 
L 277.075121 142.11468 
L 278.929494 142.137817 
L 291.013844 142.047962 
L 291.811544 141.725201 
L 292.402392 141.28298 
L 292.932496 140.6056 
L 293.255871 139.8086 
L 293.3468 138.953741 
L 293.363068 125.641519 
L 303.996778 125.523052 
L 304.686321 125.259423 
L 305.380587 124.751225 
L 305.846232 124.178608 
L 306.193635 123.391098 
L 306.307952 122.538026 
L 306.222784 121.827738 
L 305.881755 119.886474 
L 305.737836 117.547532 
L 305.581141 114.609268 
L 305.282316 113.934287 
L 304.740216 113.266494 
L 304.035603 112.772837 
L 303.220624 112.498851 
L 302.238013 112.442393 
L 285.142599 112.391109 
L 285.295418 106.718559 
L 285.601571 103.154355 
L 285.687559 101.54924 
L 285.493481 100.837603 
L 285.135534 100.191614 
L 284.532744 99.577567 
L 283.899342 99.199184 
L 283.193321 98.981843 
L 282.088669 98.944238 
L 280.742175 98.791026 
L 279.319253 98.386953 
L 277.966178 97.789432 
L 276.606345 96.941576 
L 275.57346 96.063505 
L 274.767484 95.131241 
L 274.140261 94.070957 
L 273.989494 93.481781 
L 273.811666 91.8891 
L 273.431906 90.331725 
L 272.807849 88.722423 
L 271.979885 87.207953 
L 270.969334 85.808736 
L 269.796952 84.541659 
L 268.484028 83.421244 
L 266.948924 82.389831 
L 265.301593 81.549166 
L 263.681958 80.952246 
L 262.002431 80.551489 
L 260.163889 80.355902 
L 257.973665 80.386809 
L 255.393016 80.61148 
L 252.96384 81.039453 
L 250.581003 81.679109 
L 248.267672 82.534351 
L 245.931637 83.658263 
L 244.578417 84.515765 
L 243.468958 85.494205 
L 242.447557 86.72832 
L 241.68649 87.996675 
L 241.069453 89.475765 
L 240.582209 90.71064 
L 239.591749 91.635978 
L 238.367213 92.465644 
L 236.815407 93.22194 
L 234.94803 93.857161 
L 232.781991 94.3441 
L 230.213613 94.681708 
L 226.649687 95.075056 
L 226.009777 95.442956 
L 225.404531 96.054401 
L 225.034243 96.692964 
L 224.816133 97.525582 
L 224.813161 98.242897 
L 225.212766 102.786948 
L 225.356464 107.596152 
L 225.268986 109.22149 
L 209.227394 109.302092 
L 208.426274 109.615789 
L 207.82974 110.05041 
L 207.292265 110.722048 
L 206.994105 111.397138 
L 206.866285 112.114706 
L 206.731018 116.0589 
L 206.566921 123.582947 
L 206.445459 123.561214 
L 202.095411 122.670014 
L 199.51111 121.888467 
L 196.741731 120.842018 
L 194.288182 119.683304 
L 192.162298 118.432955 
L 190.373856 117.117308 
L 188.926765 115.776314 
L 187.740034 114.358596 
L 186.88265 113.004052 
L 186.222682 111.543856 
L 186.072336 110.827961 
L 185.906346 108.738186 
L 185.511401 106.679241 
L 184.850227 104.560404 
L 184.009927 102.639805 
L 182.974925 100.816523 
L 181.762342 99.106357 
L 180.389215 97.521861 
L 178.872472 96.074293 
L 177.227981 94.773638 
L 175.470624 93.629554 
L 173.503903 92.600417 
L 171.32805 91.731757 
L 169.191131 91.129893 
L 167.12532 90.772545 
L 165.033586 90.633163 
L 163.308839 90.724594 
L 162.499625 91.017342 
L 161.807986 91.529313 
L 161.280384 92.208804 
L 160.969257 93.011126 
L 160.887461 93.743883 
L 160.781134 96.452213 
L 160.457131 98.147856 
L 159.911249 99.915031 
L 159.069587 101.835353 
L 158.016224 103.647582 
L 156.771323 105.334009 
L 155.349695 106.874713 
L 153.861541 108.170609 
L 152.131527 109.353667 
L 150.376049 110.254004 
L 148.634928 110.877283 
L 147.18969 111.167444 
L 145.095208 111.257745 
L 143.142045 111.540104 
L 141.107424 112.045985 
L 139.134619 112.755121 
L 137.241202 113.655056 
L 135.441515 114.73144 
L 133.652233 116.045508 
L 131.905756 117.608001 
L 130.316731 119.330103 
L 128.894467 121.192555 
L 127.64877 123.177064 
L 126.588904 125.267582 
L 125.686974 127.563194 
L 125.043658 129.816559 
L 124.606078 132.243844 
L 124.429217 134.580195 
L 124.439297 140.010504 
L 124.639157 140.847329 
L 125.062473 141.596467 
L 125.679628 142.195744 
L 126.436953 142.604181 
L 127.278252 142.779122 
L 129.374918 142.790703 
L 142.965429 142.892447 
L 143.076142 161.032792 
L 143.114883 164.84397 
L 124.61555 164.980192 
L 123.824446 165.318803 
L 123.162218 165.867886 
L 122.673435 166.575958 
L 122.407956 167.393917 
L 122.356 168.253805 
L 122.461472 183.928179 
L 122.75329 185.629676 
L 123.250691 187.282732 
L 123.955258 188.858489 
L 124.861941 190.314991 
L 125.909849 191.526991 
L 127.035599 192.486748 
L 128.298074 193.256815 
L 129.553685 193.767231 
L 130.876224 194.064726 
L 131.366774 194.116817 
L 131.366774 194.116817 
" style="fill:none;stroke:#000000;stroke-linecap:square;stroke-width:1.5;"/>
   </g>
   <g id="line2d_2">
    <path clip-path="url(#pbf35e82f5d)" d="M 131.366774 194.116817 
" style="fill:none;stroke:#1f77b4;stroke-linecap:square;stroke-width:1.5;"/>
    <defs>
     <path d="M 0 7.5 
C 1.989023 7.5 3.896849 6.709753 5.303301 5.303301 
C 6.709753 3.896849 7.5 1.989023 7.5 0 
C 7.5 -1.989023 6.709753 -3.896849 5.303301 -5.303301 
C 3.896849 -6.709753 1.989023 -7.5 0 -7.5 
C -1.989023 -7.5 -3.896849 -6.709753 -5.303301 -5.303301 
C -6.709753 -3.896849 -7.5 -1.989023 -7.5 0 
C -7.5 1.989023 -6.709753 3.896849 -5.303301 5.303301 
C -3.896849 6.709753 -1.989023 7.5 0 7.5 
z
" id="m6f1e0cf69c" style="stroke:#000000;"/>
    </defs>
    <g clip-path="url(#pbf35e82f5d)">
     <use style="fill:#f2f2f2;stroke:#000000;" x="131.366774" xlink:href="#m6f1e0cf69c" y="194.116817"/>
    </g>
   </g>
   <g id="line2d_3">
    <path clip-path="url(#pbf35e82f5d)" d="M 276.730855 215.337202 
" style="fill:none;stroke:#ff7f0e;stroke-linecap:square;stroke-width:1.5;"/>
    <defs>
     <path d="M 0 7.5 
C 1.989023 7.5 3.896849 6.709753 5.303301 5.303301 
C 6.709753 3.896849 7.5 1.989023 7.5 0 
C 7.5 -1.989023 6.709753 -3.896849 5.303301 -5.303301 
C 3.896849 -6.709753 1.989023 -7.5 0 -7.5 
C -1.989023 -7.5 -3.896849 -6.709753 -5.303301 -5.303301 
C -6.709753 -3.896849 -7.5 -1.989023 -7.5 0 
C -7.5 1.989023 -6.709753 3.896849 -5.303301 5.303301 
C -3.896849 6.709753 -1.989023 7.5 0 7.5 
z
" id="mb41bf907f3" style="stroke:#000000;"/>
    </defs>
    <g clip-path="url(#pbf35e82f5d)">
     <use style="stroke:#000000;" x="276.730855" xlink:href="#mb41bf907f3" y="215.337202"/>
    </g>
   </g>
  </g>
 </g>
 <defs>
  <clipPath id="pbf35e82f5d">
   <rect height="220.6512" width="334.8" x="54" y="34.3872"/>
  </clipPath>
 </defs>
</svg>
