<?xml version="1.0" encoding="utf-8" standalone="no"?>
<!DOCTYPE svg PUBLIC "-//W3C//DTD SVG 1.1//EN"
  "http://www.w3.org/Graphics/SVG/1.1/DTD/svg11.dtd">
<!-- Created with matplotlib (http://matplotlib.org/) -->
<svg height="286pt" version="1.1" viewBox="0 0 432 286" width="432pt" xmlns="http://www.w3.org/2000/svg" xmlns:xlink="http://www.w3.org/1999/xlink">
 <defs>
  <style type="text/css">
*{stroke-linecap:butt;stroke-linejoin:round;}
  </style>
 </defs>
 <g id="figure_1">
  <g id="patch_1">
   <path d="M 0 286.56 
L 432 286.56 
L 432 0 
L 0 0 
z
" style="fill:#ffffff;"/>
  </g>
  <g id="axes_1">
   <g id="patch_2">
    <path clip-path="url(#p98d6240cf1)" d="M 61.006 245.2675 
L 381.794 245.2675 
L 381.794 44.1581 
L 61.006 44.1581 
z
" style="fill:none;stroke:#000000;stroke-linejoin:miter;"/>
   </g>
   <g id="line2d_1">
    <path clip-path="url(#p98d6240cf1)" d="M 276.730855 89.920461 
L 277.158315 87.699555 
L 277.775109 85.844573 
L 278.504004 84.279529 
L 279.352166 82.919664 
L 280.388265 81.673038 
L 281.421756 80.79625 
L 282.485555 80.202292 
L 283.541414 79.873084 
L 284.767413 79.760345 
L 285.870795 79.870326 
L 286.940558 80.198112 
L 287.672126 80.650448 
L 288.245049 81.274951 
L 289.319051 82.929867 
L 290.258725 84.80405 
L 291.037796 86.882863 
L 291.649851 89.144343 
L 292.166033 91.934443 
L 292.68036 96.097285 
L 293.12888 101.021766 
L 293.368886 104.889516 
L 294.469274 105.680354 
L 295.416939 106.649494 
L 296.098489 107.680231 
L 296.669606 109.044905 
L 297.061058 110.59908 
L 297.504753 112.757475 
L 298.021378 113.447296 
L 298.865606 114.164373 
L 299.836333 114.699951 
L 301.32909 115.235445 
L 302.89526 115.577677 
L 304.978153 115.814524 
L 308.537956 116.135295 
L 309.360551 116.673742 
L 309.970856 117.444211 
L 310.27759 118.24843 
L 310.358515 118.982059 
L 310.186545 119.950175 
L 309.7154 120.813145 
L 308.99603 121.482995 
L 308.21875 121.852709 
L 307.264088 122.044841 
L 299.137097 123.412425 
L 299.428459 129.450438 
L 299.521103 136.112454 
L 299.421604 141.166264 
L 299.193345 141.867644 
L 298.803994 142.495241 
L 298.173158 143.080168 
L 297.407165 143.471614 
L 296.561353 143.628431 
L 295.818932 143.571697 
L 289.256411 142.407845 
L 288.281072 142.272107 
L 287.603012 141.980586 
L 286.930112 141.444449 
L 286.489726 140.8526 
L 286.201419 140.171066 
L 285.357549 137.722419 
L 284.358415 135.471903 
L 283.483432 133.983429 
L 282.434075 132.613437 
L 281.467196 131.662953 
L 280.852617 131.280631 
L 279.007204 131.156435 
L 277.314479 130.818202 
L 275.677806 130.27026 
L 274.121397 129.524084 
L 272.6663 128.59481 
L 271.331773 127.500393 
L 270.133013 126.258111 
L 269.085124 124.88619 
L 268.202427 123.402672 
L 267.499215 121.82597 
L 266.990195 120.17669 
L 266.787387 119.367534 
L 260.625032 119.644757 
L 252.852813 119.753713 
L 251.518581 119.783706 
L 251.422403 140.134257 
L 251.094748 140.929855 
L 250.648178 141.517753 
L 249.966435 142.04195 
L 249.167053 142.360203 
L 248.308776 142.444487 
L 233.384955 142.423351 
L 233.669121 144.370194 
L 234.360103 148.005826 
L 235.194875 151.229865 
L 236.156896 154.029618 
L 237.205363 156.39812 
L 238.347168 158.444413 
L 239.543659 160.176152 
L 240.451048 161.206786 
L 241.468636 161.611053 
L 243.148669 162.010548 
L 245.359428 162.599389 
L 246.347994 163.167315 
L 248.038135 164.407432 
L 249.575348 165.832981 
L 250.943262 167.421188 
L 252.199776 169.251209 
L 253.261987 171.200221 
L 254.182371 173.355739 
L 254.945547 175.701386 
L 255.541733 178.222004 
L 255.991772 181.147928 
L 256.045108 181.638648 
L 258.423581 180.988826 
L 260.384204 180.243808 
L 262.025484 179.373299 
L 263.230492 178.51559 
L 264.28774 177.481491 
L 265.010883 176.483443 
L 265.337376 175.70973 
L 265.521484 174.117042 
L 265.964193 172.321699 
L 266.588796 170.712557 
L 267.40723 169.192466 
L 268.407618 167.78621 
L 269.578086 166.517612 
L 270.903994 165.41282 
L 272.367604 164.49825 
L 273.829716 163.841178 
L 275.487791 163.36273 
L 277.075122 163.142981 
L 278.929495 163.119844 
L 291.013846 163.209701 
L 291.811546 163.532461 
L 292.402393 163.974683 
L 292.932496 164.652063 
L 293.255871 165.449063 
L 293.3468 166.303922 
L 293.363069 179.616143 
L 303.99678 179.734611 
L 304.686322 179.998239 
L 305.380588 180.506438 
L 305.846232 181.079055 
L 306.193636 181.866566 
L 306.307952 182.719637 
L 306.222783 183.429925 
L 305.881755 185.37119 
L 305.737836 187.710131 
L 305.58114 190.648395 
L 305.282315 191.323376 
L 304.740215 191.991169 
L 304.035602 192.484826 
L 303.220623 192.758811 
L 302.238011 192.815268 
L 285.142599 192.866554 
L 285.295419 198.539105 
L 285.601572 202.103308 
L 285.687559 203.708423 
L 285.493481 204.42006 
L 285.135534 205.066049 
L 284.532743 205.680096 
L 283.899341 206.058478 
L 283.19332 206.275819 
L 282.088668 206.313424 
L 280.742173 206.466636 
L 279.319252 206.870709 
L 277.966177 207.46823 
L 276.606344 208.316086 
L 275.573459 209.194158 
L 274.767484 210.126422 
L 274.14026 211.186706 
L 273.989494 211.775882 
L 273.811666 213.368564 
L 273.431905 214.925938 
L 272.807848 216.53524 
L 271.979884 218.04971 
L 270.969333 219.448927 
L 269.796951 220.716004 
L 268.484027 221.836419 
L 266.948922 222.867831 
L 265.301592 223.708497 
L 263.681957 224.305416 
L 262.00243 224.706173 
L 260.163888 224.90176 
L 257.973664 224.870852 
L 255.393015 224.646182 
L 252.963839 224.218209 
L 250.581002 223.578553 
L 248.267671 222.72331 
L 245.931635 221.599398 
L 244.578416 220.741896 
L 243.468957 219.763456 
L 242.447557 218.52934 
L 241.686489 217.260986 
L 241.069452 215.781895 
L 240.582208 214.547021 
L 239.591747 213.621683 
L 238.367212 212.792017 
L 236.815405 212.035721 
L 234.948029 211.400501 
L 232.781989 210.913562 
L 230.213612 210.575954 
L 226.649686 210.182605 
L 226.009776 209.814705 
L 225.40453 209.20326 
L 225.034243 208.564696 
L 224.816133 207.732079 
L 224.813161 207.014763 
L 225.212766 202.470713 
L 225.356464 197.661508 
L 225.268984 196.036172 
L 209.227392 195.955569 
L 208.426272 195.641872 
L 207.829739 195.207251 
L 207.292264 194.535613 
L 206.994105 193.860522 
L 206.866285 193.142954 
L 206.731018 189.198761 
L 206.566919 181.674715 
L 206.445457 181.696448 
L 202.09541 182.587648 
L 199.511108 183.369195 
L 196.74173 184.415645 
L 194.288181 185.574359 
L 192.162297 186.824708 
L 190.373855 188.140355 
L 188.926764 189.481349 
L 187.740033 190.899067 
L 186.88265 192.253612 
L 186.222681 193.713807 
L 186.072336 194.429703 
L 185.906346 196.519477 
L 185.511401 198.578422 
L 184.850226 200.697259 
L 184.009926 202.617859 
L 182.974924 204.44114 
L 181.762341 206.151306 
L 180.389214 207.735802 
L 178.872471 209.183369 
L 177.22798 210.484025 
L 175.470623 211.628108 
L 173.503902 212.657246 
L 171.328049 213.525905 
L 169.19113 214.127769 
L 167.125319 214.485117 
L 165.033585 214.624499 
L 163.308837 214.533068 
L 162.499623 214.240319 
L 161.807985 213.728348 
L 161.280384 213.048857 
L 160.969257 212.246534 
L 160.887461 211.513778 
L 160.781134 208.805448 
L 160.45713 207.109804 
L 159.911249 205.34263 
L 159.069586 203.422308 
L 158.016223 201.610078 
L 156.771322 199.923652 
L 155.349694 198.382948 
L 153.86154 197.087052 
L 152.131526 195.903994 
L 150.376048 195.003657 
L 148.634927 194.380379 
L 147.189689 194.090218 
L 145.095207 193.999916 
L 143.142044 193.717558 
L 141.107423 193.211676 
L 139.134618 192.50254 
L 137.241201 191.602605 
L 135.441514 190.526222 
L 133.652232 189.212153 
L 131.905755 187.64966 
L 130.31673 185.927558 
L 128.894466 184.065106 
L 127.648769 182.080597 
L 126.588904 179.990079 
L 125.686974 177.694467 
L 125.043658 175.441101 
L 124.606078 173.013816 
L 124.429217 170.677465 
L 124.439298 165.247156 
L 124.639158 164.410331 
L 125.062474 163.661194 
L 125.679629 163.061917 
L 126.436954 162.653481 
L 127.278253 162.47854 
L 129.374919 162.466959 
L 142.965429 162.365213 
L 143.076142 144.224869 
L 143.114882 140.413692 
L 124.615549 140.277469 
L 123.824445 139.938858 
L 123.162217 139.389775 
L 122.673434 138.681703 
L 122.407955 137.863744 
L 122.356 137.003855 
L 122.461472 121.329481 
L 122.75329 119.627985 
L 123.250691 117.974928 
L 123.955259 116.399172 
L 124.861942 114.94267 
L 125.90985 113.73067 
L 127.0356 112.770914 
L 128.298075 112.000846 
L 129.553686 111.49043 
L 130.876225 111.192936 
L 131.366775 111.140845 
L 131.366775 111.140845 
" style="fill:none;stroke:#000000;stroke-linecap:square;stroke-width:1.5;"/>
   </g>
   <g id="line2d_2">
    <path clip-path="url(#p98d6240cf1)" d="M 131.366775 111.140845 
" style="fill:none;stroke:#1f77b4;stroke-linecap:square;stroke-width:1.5;"/>
    <defs>
     <path d="M 0 7.5 
C 1.989023 7.5 3.896849 6.709753 5.303301 5.303301 
C 6.709753 3.896849 7.5 1.989023 7.5 0 
C 7.5 -1.989023 6.709753 -3.896849 5.303301 -5.303301 
C 3.896849 -6.709753 1.989023 -7.5 0 -7.5 
C -1.989023 -7.5 -3.896849 -6.709753 -5.303301 -5.303301 
C -6.709753 -3.896849 -7.5 -1.989023 -7.5 0 
C -7.5 1.989023 -6.709753 3.896849 -5.303301 5.303301 
C -3.896849 6.709753 -1.989023 7.5 0 7.5 
z
" id="mf9dd963844" style="stroke:#000000;"/>
    </defs>
    <g clip-path="url(#p98d6240cf1)">
     <use style="fill:#f2f2f2;stroke:#000000;" x="131.366775" xlink:href="#mf9dd963844" y="111.140845"/>
    </g>
   </g>
   <g id="line2d_3">
    <path clip-path="url(#p98d6240cf1)" d="M 276.730855 89.920461 
" style="fill:none;stroke:#ff7f0e;stroke-linecap:square;stroke-width:1.5;"/>
    <defs>
     <path d="M 0 7.5 
C 1.989023 7.5 3.896849 6.709753 5.303301 5.303301 
C 6.709753 3.896849 7.5 1.989023 7.5 0 
C 7.5 -1.989023 6.709753 -3.896849 5.303301 -5.303301 
C 3.896849 -6.709753 1.989023 -7.5 0 -7.5 
C -1.989023 -7.5 -3.896849 -6.709753 -5.303301 -5.303301 
C -6.709753 -3.896849 -7.5 -1.989023 -7.5 0 
C -7.5 1.989023 -6.709753 3.896849 -5.303301 5.303301 
C -3.896849 6.709753 -1.989023 7.5 0 7.5 
z
" id="m213e4efb55" style="stroke:#000000;"/>
    </defs>
    <g clip-path="url(#p98d6240cf1)">
     <use style="stroke:#000000;" x="276.730855" xlink:href="#m213e4efb55" y="89.920461"/>
    </g>
   </g>
  </g>
 </g>
 <defs>
  <clipPath id="p98d6240cf1">
   <rect height="220.6512" width="334.8" x="54" y="34.3872"/>
  </clipPath>
 </defs>
</svg>
