<?xml version="1.0" encoding="utf-8" standalone="no"?>
<!DOCTYPE svg PUBLIC "-//W3C//DTD SVG 1.1//EN"
  "http://www.w3.org/Graphics/SVG/1.1/DTD/svg11.dtd">
<!-- Created with matplotlib (http://matplotlib.org/) -->
<svg height="286pt" version="1.1" viewBox="0 0 432 286" width="432pt" xmlns="http://www.w3.org/2000/svg" xmlns:xlink="http://www.w3.org/1999/xlink">
 <defs>
  <style type="text/css">
*{stroke-linecap:butt;stroke-linejoin:round;}
  </style>
 </defs>
 <g id="figure_1">
  <g id="patch_1">
   <path d="M 0 286.56 
L 432 286.56 
L 432 0 
L 0 0 
z
" style="fill:#ffffff;"/>
  </g>
  <g id="axes_1">
   <g id="patch_2">
    <path clip-path="url(#p1431f9fd56)" d="M 61.006 245.2675 
L 381.794 245.2675 
L 381.794 44.1581 
L 61.006 44.1581 
z
" style="fill:none;stroke:#000000;stroke-linejoin:miter;"/>
   </g>
   <g id="line2d_1">
    <path clip-path="url(#p1431f9fd56)" d="M 221.4 144.7128 
L 237.939864 128.296222 
L 247.296215 119.292371 
L 254.233156 112.854929 
L 261.080103 106.766529 
L 267.81829 101.093876 
L 274.429247 95.899121 
L 278.756905 92.72979 
L 283.014683 89.813716 
L 287.197392 87.165104 
L 291.299937 84.796859 
L 295.317321 82.720519 
L 299.244647 80.946198 
L 303.077131 79.482543 
L 306.810105 78.336682 
L 310.439019 77.514199 
L 313.959453 77.019101 
L 317.367118 76.8538 
L 320.657862 77.019101 
L 323.827675 77.514199 
L 326.872696 78.336682 
L 329.789214 79.482543 
L 332.573677 80.946198 
L 335.222692 82.720519 
L 337.733032 84.796859 
L 340.101637 87.165104 
L 342.325623 89.813716 
L 344.40228 92.72979 
L 346.329078 95.899121 
L 348.103668 99.306266 
L 349.72389 102.934628 
L 351.187769 106.766529 
L 352.493521 110.7833 
L 353.639556 114.965372 
L 354.624478 119.292371 
L 355.447086 123.743216 
L 356.106379 128.296222 
L 356.601552 132.929208 
L 356.932003 137.619603 
L 357.09733 142.344555 
L 357.09733 147.081045 
L 356.932003 151.805997 
L 356.601552 156.496392 
L 356.106379 161.129378 
L 355.447086 165.682384 
L 354.624478 170.133229 
L 353.639556 174.460228 
L 352.493521 178.6423 
L 351.187769 182.659071 
L 349.72389 186.490972 
L 348.103668 190.119334 
L 346.329078 193.52648 
L 344.40228 196.69581 
L 342.325623 199.611884 
L 340.101637 202.260496 
L 337.733032 204.628741 
L 335.222692 206.705081 
L 332.573677 208.479402 
L 329.789214 209.943057 
L 326.872696 211.088918 
L 323.827675 211.911401 
L 320.657862 212.406499 
L 317.367118 212.5718 
L 313.959453 212.406499 
L 310.439019 211.911401 
L 306.810105 211.088918 
L 303.077131 209.943057 
L 299.244647 208.479402 
L 295.317321 206.705081 
L 291.299937 204.628741 
L 287.197392 202.260496 
L 283.014683 199.611884 
L 278.756905 196.69581 
L 274.429247 193.52648 
L 267.81829 188.331724 
L 261.080103 182.659071 
L 254.233156 176.570671 
L 247.296215 170.133229 
L 237.939864 161.129378 
L 223.768606 147.081045 
L 204.860136 128.296222 
L 195.503785 119.292371 
L 188.566844 112.854929 
L 181.719897 106.766529 
L 174.98171 101.093876 
L 168.370753 95.899121 
L 164.043095 92.72979 
L 159.785317 89.813716 
L 155.602608 87.165104 
L 151.500063 84.796859 
L 147.482679 82.720519 
L 143.555353 80.946198 
L 139.722869 79.482543 
L 135.989895 78.336682 
L 132.360981 77.514199 
L 128.840547 77.019101 
L 125.432882 76.8538 
L 122.142138 77.019101 
L 118.972325 77.514199 
L 115.927304 78.336682 
L 113.010786 79.482543 
L 110.226323 80.946198 
L 107.577308 82.720519 
L 105.066968 84.796859 
L 102.698363 87.165104 
L 100.474377 89.813716 
L 98.39772 92.72979 
L 96.470922 95.899121 
L 94.696332 99.306266 
L 93.07611 102.934628 
L 91.612231 106.766529 
L 90.306479 110.7833 
L 89.160444 114.965372 
L 88.175522 119.292371 
L 87.352914 123.743216 
L 86.693621 128.296222 
L 86.198448 132.929208 
L 85.867997 137.619603 
L 85.702671 142.344555 
L 85.702671 147.081045 
L 85.867997 151.805997 
L 86.198448 156.496392 
L 86.693621 161.129378 
L 87.352914 165.682384 
L 88.175522 170.133229 
L 89.160444 174.460228 
L 90.306479 178.6423 
L 91.612231 182.659071 
L 93.07611 186.490972 
L 94.696332 190.119334 
L 96.470922 193.52648 
L 98.39772 196.69581 
L 100.474377 199.611884 
L 102.698363 202.260496 
L 105.066968 204.628741 
L 107.577308 206.705081 
L 110.226323 208.479402 
L 113.010786 209.943057 
L 115.927304 211.088918 
L 118.972325 211.911401 
L 122.142138 212.406499 
L 125.432882 212.5718 
L 128.840547 212.406499 
L 132.360981 211.911401 
L 135.989895 211.088918 
L 139.722869 209.943057 
L 143.555353 208.479402 
L 147.482679 206.705081 
L 151.500063 204.628741 
L 155.602608 202.260496 
L 159.785317 199.611884 
L 164.043095 196.69581 
L 168.370753 193.52648 
L 174.98171 188.331724 
L 181.719897 182.659071 
L 188.566844 176.570671 
L 195.503785 170.133229 
L 204.860136 161.129378 
L 219.031394 147.081045 
L 237.939864 128.296222 
L 247.296215 119.292371 
L 254.233156 112.854929 
L 261.080103 106.766529 
L 267.81829 101.093876 
L 274.429247 95.899121 
L 278.756905 92.72979 
L 283.014683 89.813716 
L 287.197392 87.165104 
L 291.299937 84.796859 
L 295.317321 82.720519 
L 299.244647 80.946198 
L 303.077131 79.482543 
L 306.810105 78.336682 
L 310.439019 77.514199 
L 313.959453 77.019101 
L 317.367118 76.8538 
L 320.657862 77.019101 
L 323.827675 77.514199 
L 326.872696 78.336682 
L 329.789214 79.482543 
L 332.573677 80.946198 
L 335.222692 82.720519 
L 337.733032 84.796859 
L 340.101637 87.165104 
L 342.325623 89.813716 
L 344.40228 92.72979 
L 346.329078 95.899121 
L 348.103668 99.306266 
L 349.72389 102.934628 
L 351.187769 106.766529 
L 352.493521 110.7833 
L 353.639556 114.965372 
L 354.624478 119.292371 
L 355.447086 123.743216 
L 356.106379 128.296222 
L 356.601552 132.929208 
L 356.932003 137.619603 
L 357.09733 142.344555 
L 357.09733 147.081045 
L 356.932003 151.805997 
L 356.601552 156.496392 
L 356.106379 161.129378 
L 355.447086 165.682384 
L 354.624478 170.133229 
L 353.639556 174.460228 
L 352.493521 178.6423 
L 351.187769 182.659071 
L 349.72389 186.490972 
L 348.103668 190.119334 
L 346.329078 193.52648 
L 344.40228 196.69581 
L 342.325623 199.611884 
L 340.101637 202.260496 
L 337.733032 204.628741 
L 335.222692 206.705081 
L 332.573677 208.479402 
L 329.789214 209.943057 
L 326.872696 211.088918 
L 323.827675 211.911401 
L 320.657862 212.406499 
L 317.367118 212.5718 
L 313.959453 212.406499 
L 310.439019 211.911401 
L 306.810105 211.088918 
L 303.077131 209.943057 
L 299.244647 208.479402 
L 295.317321 206.705081 
L 291.299937 204.628741 
L 287.197392 202.260496 
L 283.014683 199.611884 
L 278.756905 196.69581 
L 274.429247 193.52648 
L 267.81829 188.331724 
L 261.080103 182.659071 
L 254.233156 176.570671 
L 247.296215 170.133229 
L 237.939864 161.129378 
L 223.768606 147.081045 
L 204.860136 128.296222 
L 195.503785 119.292371 
L 188.566844 112.854929 
L 181.719897 106.766529 
L 174.98171 101.093876 
L 168.370753 95.899121 
L 164.043095 92.72979 
L 159.785317 89.813716 
L 155.602608 87.165104 
L 151.500063 84.796859 
L 147.482679 82.720519 
L 143.555353 80.946198 
L 139.722869 79.482543 
L 135.989895 78.336682 
L 132.360981 77.514199 
L 128.840547 77.019101 
L 125.432882 76.8538 
L 122.142138 77.019101 
L 118.972325 77.514199 
L 115.927304 78.336682 
L 113.010786 79.482543 
L 110.226323 80.946198 
L 107.577308 82.720519 
L 105.066968 84.796859 
L 102.698363 87.165104 
L 100.474377 89.813716 
L 98.39772 92.72979 
L 96.470922 95.899121 
L 94.696332 99.306266 
L 93.07611 102.934628 
L 91.612231 106.766529 
L 90.306479 110.7833 
L 89.160444 114.965372 
L 88.175522 119.292371 
L 87.352914 123.743216 
L 86.693621 128.296222 
L 86.198448 132.929208 
L 85.867997 137.619603 
L 85.702671 142.344555 
L 85.702671 147.081045 
L 85.867997 151.805997 
L 86.198448 156.496392 
L 86.693621 161.129378 
L 87.352914 165.682384 
L 88.175522 170.133229 
L 89.160444 174.460228 
L 90.306479 178.6423 
L 91.612231 182.659071 
L 93.07611 186.490972 
L 94.696332 190.119334 
L 96.470922 193.52648 
L 98.39772 196.69581 
L 100.474377 199.611884 
L 102.698363 202.260496 
L 105.066968 204.628741 
L 107.577308 206.705081 
L 110.226323 208.479402 
L 113.010786 209.943057 
L 115.927304 211.088918 
L 118.972325 211.911401 
L 122.142138 212.406499 
L 125.432882 212.5718 
L 128.840547 212.406499 
L 132.360981 211.911401 
L 135.989895 211.088918 
L 139.722869 209.943057 
L 143.555353 208.479402 
L 147.482679 206.705081 
L 151.500063 204.628741 
L 155.602608 202.260496 
L 159.785317 199.611884 
L 164.043095 196.69581 
L 168.370753 193.52648 
L 174.98171 188.331724 
L 181.719897 182.659071 
L 188.566844 176.570671 
L 195.503785 170.133229 
L 204.860136 161.129378 
L 219.031394 147.081045 
L 237.939864 128.296222 
L 247.296215 119.292371 
L 254.233156 112.854929 
L 261.080103 106.766529 
L 267.81829 101.093876 
L 274.429247 95.899121 
L 278.756905 92.72979 
L 283.014683 89.813716 
L 287.197392 87.165104 
L 291.299937 84.796859 
L 295.317321 82.720519 
L 299.244647 80.946198 
L 303.077131 79.482543 
L 306.810105 78.336682 
L 310.439019 77.514199 
L 313.959453 77.019101 
L 317.367118 76.8538 
L 320.657862 77.019101 
L 323.827675 77.514199 
L 326.872696 78.336682 
L 329.789214 79.482543 
L 332.573677 80.946198 
L 335.222692 82.720519 
L 337.733032 84.796859 
L 340.101637 87.165104 
L 342.325623 89.813716 
L 344.40228 92.72979 
L 346.329078 95.899121 
L 348.103668 99.306266 
L 349.72389 102.934628 
L 351.187769 106.766529 
L 352.493521 110.7833 
L 353.639556 114.965372 
L 354.624478 119.292371 
L 355.447086 123.743216 
L 356.106379 128.296222 
L 356.601552 132.929208 
L 356.932003 137.619603 
L 357.09733 142.344555 
L 357.09733 147.081045 
L 356.932003 151.805997 
L 356.601552 156.496392 
L 356.106379 161.129378 
L 355.447086 165.682384 
L 354.624478 170.133229 
L 353.639556 174.460228 
L 352.493521 178.6423 
L 351.187769 182.659071 
L 349.72389 186.490972 
L 348.103668 190.119334 
L 346.329078 193.52648 
L 344.40228 196.69581 
L 342.325623 199.611884 
L 340.101637 202.260496 
L 337.733032 204.628741 
L 335.222692 206.705081 
L 332.573677 208.479402 
L 329.789214 209.943057 
L 326.872696 211.088918 
L 323.827675 211.911401 
L 320.657862 212.406499 
L 317.367118 212.5718 
L 313.959453 212.406499 
L 310.439019 211.911401 
L 306.810105 211.088918 
L 303.077131 209.943057 
L 299.244647 208.479402 
L 295.317321 206.705081 
L 291.299937 204.628741 
L 287.197392 202.260496 
L 283.014683 199.611884 
L 278.756905 196.69581 
L 274.429247 193.52648 
L 267.81829 188.331724 
L 261.080103 182.659071 
L 254.233156 176.570671 
L 247.296215 170.133229 
L 237.939864 161.129378 
L 223.768606 147.081045 
L 204.860136 128.296222 
L 195.503785 119.292371 
L 188.566844 112.854929 
L 181.719897 106.766529 
L 174.98171 101.093876 
L 168.370753 95.899121 
L 164.043095 92.72979 
L 159.785317 89.813716 
L 155.602608 87.165104 
L 151.500063 84.796859 
L 147.482679 82.720519 
L 143.555353 80.946198 
L 139.722869 79.482543 
L 135.989895 78.336682 
L 132.360981 77.514199 
L 128.840547 77.019101 
L 125.432882 76.8538 
L 122.142138 77.019101 
L 118.972325 77.514199 
L 115.927304 78.336682 
L 113.010786 79.482543 
L 110.226323 80.946198 
L 107.577308 82.720519 
L 105.066968 84.796859 
L 102.698363 87.165104 
L 100.474377 89.813716 
L 98.39772 92.72979 
L 96.470922 95.899121 
L 94.696332 99.306266 
L 93.07611 102.934628 
L 91.612231 106.766529 
L 90.306479 110.7833 
L 89.160444 114.965372 
L 88.175522 119.292371 
L 87.352914 123.743216 
L 86.693621 128.296222 
L 86.198448 132.929208 
L 85.867997 137.619603 
L 85.702671 142.344555 
L 85.702671 147.081045 
L 85.867997 151.805997 
L 86.198448 156.496392 
L 86.693621 161.129378 
L 87.352914 165.682384 
L 88.175522 170.133229 
L 89.160444 174.460228 
L 90.306479 178.6423 
L 91.612231 182.659071 
L 93.07611 186.490972 
L 94.696332 190.119334 
L 96.470922 193.52648 
L 98.39772 196.69581 
L 100.474377 199.611884 
L 102.698363 202.260496 
L 105.066968 204.628741 
L 107.577308 206.705081 
L 110.226323 208.479402 
L 113.010786 209.943057 
L 115.927304 211.088918 
L 118.972325 211.911401 
L 122.142138 212.406499 
L 125.432882 212.5718 
L 128.840547 212.406499 
L 132.360981 211.911401 
L 135.989895 211.088918 
L 139.722869 209.943057 
L 143.555353 208.479402 
L 147.482679 206.705081 
L 151.500063 204.628741 
L 155.602608 202.260496 
L 159.785317 199.611884 
L 164.043095 196.69581 
L 168.370753 193.52648 
L 174.98171 188.331724 
L 181.719897 182.659071 
L 188.566844 176.570671 
L 195.503785 170.133229 
L 204.860136 161.129378 
L 219.031394 147.081045 
L 221.4 144.7128 
L 221.4 144.7128 
" style="fill:none;stroke:#000000;stroke-linecap:square;stroke-width:1.5;"/>
   </g>
   <g id="line2d_2">
    <path clip-path="url(#p1431f9fd56)" d="M 256.526403 110.7833 
" style="fill:none;stroke:#1f77b4;stroke-linecap:square;stroke-width:1.5;"/>
    <defs>
     <path d="M 0 7.5 
C 1.989023 7.5 3.896849 6.709753 5.303301 5.303301 
C 6.709753 3.896849 7.5 1.989023 7.5 0 
C 7.5 -1.989023 6.709753 -3.896849 5.303301 -5.303301 
C 3.896849 -6.709753 1.989023 -7.5 0 -7.5 
C -1.989023 -7.5 -3.896849 -6.709753 -5.303301 -5.303301 
C -6.709753 -3.896849 -7.5 -1.989023 -7.5 0 
C -7.5 1.989023 -6.709753 3.896849 -5.303301 5.303301 
C -3.896849 6.709753 -1.989023 7.5 0 7.5 
z
" id="medbfa1aadb" style="stroke:#000000;"/>
    </defs>
    <g clip-path="url(#p1431f9fd56)">
     <use style="fill:#f2f2f2;stroke:#000000;" x="256.526403" xlink:href="#medbfa1aadb" y="110.7833"/>
    </g>
   </g>
  </g>
 </g>
 <defs>
  <clipPath id="p1431f9fd56">
   <rect height="220.6512" width="334.8" x="54" y="34.3872"/>
  </clipPath>
 </defs>
</svg>
