<?xml version="1.0" encoding="UTF-8" standalone="no"?>
<!-- Created with Inkscape (http://www.inkscape.org/) -->

<svg
   xmlns:dc="http://purl.org/dc/elements/1.1/"
   xmlns:cc="http://creativecommons.org/ns#"
   xmlns:rdf="http://www.w3.org/1999/02/22-rdf-syntax-ns#"
   xmlns:svg="http://www.w3.org/2000/svg"
   xmlns="http://www.w3.org/2000/svg"
   xmlns:xlink="http://www.w3.org/1999/xlink"
   xmlns:sodipodi="http://sodipodi.sourceforge.net/DTD/sodipodi-0.dtd"
   xmlns:inkscape="http://www.inkscape.org/namespaces/inkscape"
   width="166.75113mm"
   height="27.802469mm"
   viewBox="0 0 590.85047 98.512686"
   id="svg2"
   version="1.1"
   inkscape:version="0.91 r13725"
   sodipodi:docname="Figure_2.svg"
   inkscape:export-filename="C:\Users\oscar\Desktop\Hitting-the-target\Review_round_2\Article\Figures\Figs4Pub\Figure_2_HIGH_QUAL.png"
   inkscape:export-xdpi="1000"
   inkscape:export-ydpi="1000">
  <defs
     id="defs4"
     style="stroke-linecap:butt;stroke-linejoin:round">
    <style
       id="style3340"
       type="text/css">
*{stroke-linecap:butt;stroke-linejoin:round;}
  </style>
    <style
       id="style3407"
       type="text/css">
*{stroke-linecap:butt;stroke-linejoin:round;}
  </style>
    <style
       id="style3474"
       type="text/css">
*{stroke-linecap:butt;stroke-linejoin:round;}
  </style>
    <style
       id="style3525"
       type="text/css">
*{stroke-linecap:butt;stroke-linejoin:round;}
  </style>
    <style
       id="style3576"
       type="text/css">
*{stroke-linecap:butt;stroke-linejoin:round;}
  </style>
    <style
       id="style3687"
       type="text/css">
*{stroke-linecap:butt;stroke-linejoin:round;}
  </style>
    <style
       id="style3784"
       type="text/css">
*{stroke-linecap:butt;stroke-linejoin:round;}
  </style>
    <style
       id="style3891"
       type="text/css">
*{stroke-linecap:butt;stroke-linejoin:round;}
  </style>
    <style
       id="style3958"
       type="text/css">
*{stroke-linecap:butt;stroke-linejoin:round;}
  </style>
    <style
       id="style4025"
       type="text/css">
*{stroke-linecap:butt;stroke-linejoin:round;}
  </style>
    <style
       id="style4076"
       type="text/css">
*{stroke-linecap:butt;stroke-linejoin:round;}
  </style>
    <style
       id="style4145"
       type="text/css">
*{stroke-linecap:butt;stroke-linejoin:round;}
  </style>
    <style
       id="style4326"
       type="text/css">
*{stroke-linecap:butt;stroke-linejoin:round;}
  </style>
  </defs>
  <sodipodi:namedview
     id="base"
     pagecolor="#ffffff"
     bordercolor="#666666"
     borderopacity="1.0"
     inkscape:pageopacity="0.0"
     inkscape:pageshadow="2"
     inkscape:zoom="1.4"
     inkscape:cx="270.90557"
     inkscape:cy="35.50187"
     inkscape:document-units="px"
     inkscape:current-layer="layer1"
     showgrid="false"
     inkscape:window-width="1366"
     inkscape:window-height="705"
     inkscape:window-x="-8"
     inkscape:window-y="-8"
     inkscape:window-maximized="1"
     fit-margin-top="0"
     fit-margin-left="0"
     fit-margin-right="0"
     fit-margin-bottom="0" />
  <metadata
     id="metadata7">
    <rdf:RDF>
      <cc:Work
         rdf:about="">
        <dc:format>image/svg+xml</dc:format>
        <dc:type
           rdf:resource="http://purl.org/dc/dcmitype/StillImage" />
        <dc:title></dc:title>
      </cc:Work>
    </rdf:RDF>
  </metadata>
  <g
     inkscape:label="Layer 1"
     inkscape:groupmode="layer"
     id="layer1"
     transform="translate(-17.96909,-39.825497)"
     style="stroke-linecap:butt;stroke-linejoin:round">
    <g
       id="figure_1-9"
       transform="matrix(0.33730159,0,0,0.33730159,1.5603202,52.734982)"
       style="stroke-linecap:butt;stroke-linejoin:round">
      <g
         id="axes_1-8"
         style="stroke-linecap:butt;stroke-linejoin:round">
        <g
           id="patch_2-6"
           style="stroke-linecap:butt;stroke-linejoin:round">
          <path
             id="path3899"
             style="fill:none;stroke:#000000;stroke-linecap:butt;stroke-linejoin:miter"
             d="m 61.006,245.2675 320.788,0 0,-201.1094 -320.788,0 z"
             clip-path="url(#pbf35e82f5d)"
             inkscape:connector-curvature="0" />
        </g>
        <g
           id="line2d_1-1"
           style="stroke-linecap:butt;stroke-linejoin:round">
          <path
             id="path3902"
             style="fill:none;stroke:#000000;stroke-width:1.5;stroke-linecap:square;stroke-linejoin:round"
             d="m 276.73086,215.3372 0.42746,2.22091 0.61679,1.85498 0.72889,1.56504 0.84817,1.35987 1.03609,1.24662 1.0335,0.87679 1.06379,0.59396 1.05586,0.32921 1.226,0.11274 1.10338,-0.10998 1.06977,-0.32779 0.73157,-0.45234 0.57292,-0.6245 1.074,-1.65491 0.93968,-1.87419 0.77907,-2.07881 0.61205,-2.26148 0.51618,-2.7901 0.51433,-4.16284 0.44852,-4.92448 0.24,-3.86775 1.10039,-0.79084 0.94767,-0.96914 0.68155,-1.03074 0.57111,-1.36467 0.39146,-1.55418 0.44369,-2.15839 0.51663,-0.68982 0.84423,-0.71708 0.97072,-0.53558 1.49276,-0.53549 1.56617,-0.34224 2.08289,-0.23684 3.5598,-0.32077 0.8226,-0.53845 0.6103,-0.77047 0.30674,-0.80422 0.0809,-0.73362 -0.17196,-0.96812 -0.47115,-0.86297 -0.71937,-0.66985 -0.77728,-0.36972 -0.95466,-0.19213 -8.12699,-1.36758 0.29136,-6.03802 0.0926,-6.66201 -0.0995,-5.05381 -0.22825,-0.70138 -0.38936,-0.6276 -0.63083,-0.58493 -0.76599,-0.39144 -0.84582,-0.15682 -0.74242,0.0567 -6.56252,1.16386 -0.97534,0.13573 -0.67806,0.29153 -0.6729,0.53613 -0.44038,0.59185 -0.28831,0.68153 -0.84387,2.44865 -0.99914,2.25052 -0.87498,1.48847 -1.04935,1.36999 -0.96688,0.95049 -0.61458,0.38232 -1.84542,0.1242 -1.69272,0.33823 -1.63667,0.54794 -1.55641,0.74618 -1.4551,0.92927 -1.33453,1.09442 -1.19876,1.24228 -1.04789,1.37192 -0.88269,1.48352 -0.70321,1.5767 -0.50902,1.64928 -0.20281,0.80916 -6.16236,-0.27723 -7.77222,-0.10895 -1.33423,-0.03 -0.0962,-20.35055 -0.32765,-0.7956 -0.44657,-0.5879 -0.68174,-0.5242 -0.79939,-0.31825 -0.85827,-0.0843 -14.92382,0.0211 0.28416,-1.94684 0.69098,-3.63563 0.83477,-3.22404 0.96202,-2.79976 1.04847,-2.3685 1.14181,-2.04629 1.19649,-1.73174 0.90739,-1.03063 1.01758,-0.40427 1.68004,-0.3995 2.21076,-0.58884 0.98856,-0.56792 1.69014,-1.24012 1.53722,-1.42555 1.36791,-1.58821 1.25651,-1.83002 1.06222,-1.94901 0.92038,-2.15552 0.76318,-2.34564 0.59618,-2.52062 0.45004,-2.92592 0.0533,-0.49072 2.37847,0.64982 1.96062,0.74501 1.64128,0.87051 1.20501,0.85771 1.05725,1.0341 0.72314,0.99805 0.3265,0.77371 0.1841,1.59269 0.44271,1.79534 0.6246,1.60914 0.81844,1.52009 1.00039,1.40626 1.17046,1.2686 1.32591,1.10479 1.46361,0.91457 1.46212,0.65707 1.65807,0.47845 1.58733,0.21975 1.85437,0.0231 12.08435,-0.0899 0.7977,-0.32276 0.59085,-0.44222 0.53011,-0.67738 0.32337,-0.797 0.0909,-0.85486 0.0163,-13.31222 10.63371,-0.11847 0.68954,-0.26363 0.69427,-0.50819 0.46564,-0.57262 0.3474,-0.78751 0.11432,-0.85307 -0.0852,-0.71029 -0.34103,-1.94127 -0.14391,-2.33894 -0.1567,-2.93826 -0.29882,-0.67498 -0.5421,-0.6678 -0.70462,-0.49365 -0.81498,-0.27399 -0.98261,-0.0565 -17.09541,-0.0513 0.15282,-5.67255 0.30615,-3.56421 0.086,-1.60511 -0.19408,-0.71164 -0.35795,-0.64599 -0.60279,-0.614043 -0.6334,-0.378383 -0.70602,-0.217341 -1.10465,-0.0376 -1.3465,-0.153212 -1.42292,-0.404073 -1.35307,-0.597521 -1.35984,-0.847856 -1.03288,-0.878071 -0.80598,-0.932264 -0.62722,-1.060284 -0.15077,-0.589176 -0.17782,-1.592681 -0.37976,-1.557375 -0.62406,-1.609302 -0.82796,-1.51447 -1.01056,-1.399217 -1.17238,-1.267077 -1.31292,-1.120415 -1.53511,-1.031413 -1.64733,-0.840665 -1.61963,-0.59692 -1.67953,-0.400757 -1.83854,-0.195587 -2.19023,0.03091 -2.58064,0.224671 -2.42918,0.427973 -2.38284,0.639656 -2.31333,0.855242 -2.33603,1.123912 -1.35322,0.857502 -1.10946,0.97844 -1.0214,1.234115 -0.76107,1.268355 -0.61704,1.47909 -0.48724,1.234875 -0.99046,0.925338 -1.22454,0.829666 -1.5518,0.756296 -1.86738,0.635221 -2.16604,0.486939 -2.56838,0.337608 -3.56392,0.393348 -0.63991,0.3679 -0.60525,0.611445 -0.37029,0.638563 -0.21811,0.832618 -0.003,0.717315 0.39961,4.544055 0.14369,4.8092 -0.0875,1.62534 -16.0416,0.0806 -0.80112,0.3137 -0.59653,0.43462 -0.53748,0.67164 -0.29816,0.67509 -0.12782,0.71757 -0.13526,3.94419 -0.1641,7.52405 -0.12146,-0.0217 -4.35005,-0.8912 -2.5843,-0.78154 -2.76938,-1.04645 -2.45355,-1.15872 -2.12588,-1.25034 -1.78844,-1.31565 -1.4471,-1.341 -1.18673,-1.41771 -0.85738,-1.35455 -0.65997,-1.46019 -0.15034,-0.7159 -0.16599,-2.08977 -0.39495,-2.05895 -0.66117,-2.11884 -0.8403,-1.9206 -1.035,-1.82328 -1.21259,-1.710165 -1.37313,-1.584496 -1.51674,-1.447568 -1.64449,-1.300655 -1.75736,-1.144084 -1.96672,-1.029137 -2.17585,-0.86866 -2.13692,-0.601864 -2.06581,-0.357348 -2.09173,-0.139382 -1.72475,0.09143 -0.80922,0.292748 -0.69163,0.511971 -0.52761,0.679491 -0.31112,0.802322 -0.0818,0.732757 -0.10633,2.70833 -0.324,1.695643 -0.54588,1.767175 -0.84166,1.920322 -1.05337,1.81223 -1.2449,1.68643 -1.42163,1.5407 -1.48815,1.2959 -1.73001,1.18306 -1.75548,0.90033 -1.74112,0.62328 -1.44524,0.29016 -2.09448,0.0903 -1.95317,0.28235 -2.03462,0.50589 -1.9728,0.70913 -1.89342,0.89994 -1.79969,1.07638 -1.78928,1.31407 -1.74647,1.56249 -1.58903,1.7221 -1.42226,1.86246 -1.2457,1.9845 -1.05987,2.09052 -0.90193,2.29561 -0.64331,2.25337 -0.43758,2.42728 -0.17686,2.33635 0.0101,5.43031 0.19986,0.83683 0.42331,0.74914 0.61716,0.59927 0.75732,0.40844 0.8413,0.17494 2.09667,0.0116 13.59051,0.10175 0.11071,18.14034 0.0387,3.81118 -18.49933,0.13622 -0.7911,0.33861 -0.66223,0.54909 -0.48879,0.70807 -0.26547,0.81796 -0.052,0.85988 0.10547,15.67438 0.29182,1.7015 0.4974,1.65305 0.70457,1.57576 0.90668,1.4565 1.04791,1.212 1.12575,0.95976 1.26247,0.77006 1.25561,0.51042 1.32254,0.2975 0.49055,0.0521 0,0"
             clip-path="url(#pbf35e82f5d)"
             inkscape:connector-curvature="0" />
        </g>
        <g
           id="line2d_2-5"
           style="stroke-linecap:butt;stroke-linejoin:round">
          <path
             id="path3905"
             style="fill:none;stroke:#1f77b4;stroke-width:1.5;stroke-linecap:square;stroke-linejoin:round"
             d="M 131.36677,194.11682"
             clip-path="url(#pbf35e82f5d)"
             inkscape:connector-curvature="0" />
          <defs
             id="defs3907">
            <path
               style="stroke:#000000;stroke-linecap:butt;stroke-linejoin:round"
               id="m6f1e0cf69c"
               d="M 0,7.5 C 1.989023,7.5 3.896849,6.709753 5.303301,5.303301 6.709753,3.896849 7.5,1.989023 7.5,0 7.5,-1.989023 6.709753,-3.896849 5.303301,-5.303301 3.896849,-6.709753 1.989023,-7.5 0,-7.5 c -1.989023,0 -3.896849,0.790247 -5.303301,2.196699 C -6.709753,-3.896849 -7.5,-1.989023 -7.5,0 c 0,1.989023 0.790247,3.896849 2.196699,5.303301 C -3.896849,6.709753 -1.989023,7.5 0,7.5 Z"
               inkscape:connector-curvature="0" />
          </defs>
          <g
             id="g3910"
             clip-path="url(#pbf35e82f5d)"
             style="stroke-linecap:butt;stroke-linejoin:round">
            <use
               id="use3912"
               y="194.11682"
               xlink:href="#m6f1e0cf69c"
               x="131.36678"
               style="fill:#f2f2f2;stroke:#000000;stroke-linecap:butt;stroke-linejoin:round"
               width="100%"
               height="100%" />
          </g>
        </g>
        <g
           id="line2d_3-1"
           style="stroke-linecap:butt;stroke-linejoin:round">
          <path
             id="path3915"
             style="fill:none;stroke:#ff7f0e;stroke-width:1.5;stroke-linecap:square;stroke-linejoin:round"
             d="M 276.73086,215.3372"
             clip-path="url(#pbf35e82f5d)"
             inkscape:connector-curvature="0" />
          <defs
             id="defs3917">
            <path
               style="stroke:#000000;stroke-linecap:butt;stroke-linejoin:round"
               id="mb41bf907f3"
               d="M 0,7.5 C 1.989023,7.5 3.896849,6.709753 5.303301,5.303301 6.709753,3.896849 7.5,1.989023 7.5,0 7.5,-1.989023 6.709753,-3.896849 5.303301,-5.303301 3.896849,-6.709753 1.989023,-7.5 0,-7.5 c -1.989023,0 -3.896849,0.790247 -5.303301,2.196699 C -6.709753,-3.896849 -7.5,-1.989023 -7.5,0 c 0,1.989023 0.790247,3.896849 2.196699,5.303301 C -3.896849,6.709753 -1.989023,7.5 0,7.5 Z"
               inkscape:connector-curvature="0" />
          </defs>
          <g
             id="g3920"
             clip-path="url(#pbf35e82f5d)"
             style="stroke-linecap:butt;stroke-linejoin:round">
            <use
               id="use3922"
               y="215.3372"
               xlink:href="#mb41bf907f3"
               x="276.73087"
               style="stroke:#000000;stroke-linecap:butt;stroke-linejoin:round"
               width="100%"
               height="100%" />
          </g>
        </g>
      </g>
    </g>
    <g
       id="figure_1-6"
       transform="matrix(0.33730159,0,0,0.33730159,113.36196,52.734982)"
       style="stroke-linecap:butt;stroke-linejoin:round">
      <g
         id="axes_1-3"
         style="stroke-linecap:butt;stroke-linejoin:round">
        <g
           id="patch_2-9"
           style="stroke-linecap:butt;stroke-linejoin:round">
          <path
             id="path3966"
             style="fill:none;stroke:#000000;stroke-linecap:butt;stroke-linejoin:miter"
             d="m 61.006,245.2675 320.788,0 0,-201.1094 -320.788,0 z"
             clip-path="url(#p98d6240cf1)"
             inkscape:connector-curvature="0" />
        </g>
        <g
           id="line2d_1-5"
           style="stroke-linecap:butt;stroke-linejoin:round">
          <path
             id="path3969"
             style="fill:none;stroke:#000000;stroke-width:1.5;stroke-linecap:square;stroke-linejoin:round"
             d="m 276.73086,89.920461 0.42746,-2.220906 0.61679,-1.854982 0.72889,-1.565044 0.84817,-1.359865 1.03609,-1.246626 1.0335,-0.876788 1.06379,-0.593958 1.05586,-0.329208 1.226,-0.112739 1.10338,0.109981 1.06977,0.327786 0.73157,0.452336 0.57292,0.624503 1.074,1.654916 0.93968,1.874183 0.77907,2.078813 0.61205,2.26148 0.51618,2.7901 0.51433,4.162842 0.44852,4.924485 0.24001,3.86775 1.10038,0.79083 0.94767,0.96914 0.68155,1.03074 0.57112,1.36468 0.39145,1.55417 0.44369,2.1584 0.51663,0.68982 0.84423,0.71707 0.97072,0.53558 1.49276,0.5355 1.56617,0.34223 2.08289,0.23684 3.55981,0.32078 0.82259,0.53844 0.61031,0.77047 0.30673,0.80422 0.0809,0.73363 -0.17196,0.96812 -0.47115,0.86297 -0.71937,0.66985 -0.77728,0.36971 -0.95466,0.19213 -8.12699,1.36759 0.29136,6.03801 0.0926,6.66201 -0.0995,5.05381 -0.22825,0.70138 -0.38936,0.6276 -0.63083,0.58493 -0.76599,0.39144 -0.84582,0.15682 -0.74242,-0.0567 -6.56252,-1.16386 -0.97534,-0.13573 -0.67806,-0.29152 -0.6729,-0.53614 -0.44038,-0.59185 -0.28831,-0.68153 -0.84387,-2.44865 -0.99914,-2.25052 -0.87498,-1.48847 -1.04936,-1.36999 -0.96687,-0.95049 -0.61458,-0.38232 -1.84542,-0.1242 -1.69272,-0.33823 -1.63667,-0.54794 -1.55641,-0.74618 -1.4551,-0.92927 -1.33453,-1.09442 -1.19876,-1.24228 -1.04789,-1.37192 -0.88269,-1.48352 -0.70322,-1.5767 -0.50901,-1.64928 -0.20281,-0.80916 -6.16236,0.27723 -7.77222,0.10895 -1.33423,0.03 -0.0962,20.35055 -0.32765,0.79559 -0.44657,0.5879 -0.68175,0.5242 -0.79938,0.31825 -0.85827,0.0843 -14.92383,-0.0211 0.28417,1.94684 0.69098,3.63564 0.83477,3.22403 0.96203,2.79976 1.04846,2.3685 1.14181,2.04629 1.19649,1.73174 0.90739,1.03064 1.01759,0.40426 1.68003,0.3995 2.21076,0.58884 0.98856,0.56792 1.69014,1.24012 1.53722,1.42555 1.36791,1.58821 1.25652,1.83002 1.06221,1.94901 0.92038,2.15552 0.76318,2.34565 0.59618,2.52061 0.45004,2.92593 0.0533,0.49072 2.37847,-0.64982 1.96062,-0.74502 1.64128,-0.87051 1.20501,-0.85771 1.05725,-1.0341 0.72314,-0.99805 0.3265,-0.77371 0.1841,-1.59269 0.44271,-1.79534 0.62461,-1.60914 0.81843,-1.52009 1.00039,-1.40626 1.17047,-1.2686 1.3259,-1.10479 1.46361,-0.91457 1.46212,-0.65707 1.65807,-0.47845 1.58733,-0.21975 1.85437,-0.0231 12.08436,0.0899 0.7977,0.32276 0.59084,0.44222 0.53011,0.67738 0.32337,0.797 0.0909,0.85486 0.0163,13.31222 10.63371,0.11847 0.68954,0.26363 0.69427,0.5082 0.46564,0.57261 0.34741,0.78752 0.11431,0.85307 -0.0852,0.71028 -0.34103,1.94127 -0.14391,2.33894 -0.1567,2.93826 -0.29883,0.67499 -0.5421,0.66779 -0.70461,0.49366 -0.81498,0.27398 -0.98261,0.0565 -17.09541,0.0513 0.15282,5.67255 0.30615,3.56421 0.086,1.60511 -0.19408,0.71164 -0.35795,0.64599 -0.60279,0.61405 -0.6334,0.37838 -0.70602,0.21734 -1.10465,0.0376 -1.3465,0.15322 -1.42292,0.40407 -1.35307,0.59752 -1.35984,0.84786 -1.03288,0.87807 -0.80598,0.93226 -0.62722,1.06029 -0.15077,0.58917 -0.17782,1.59268 -0.37977,1.55738 -0.62405,1.6093 -0.82797,1.51447 -1.01055,1.39922 -1.17238,1.26707 -1.31292,1.12042 -1.53511,1.03141 -1.64733,0.84067 -1.61963,0.59692 -1.67953,0.40075 -1.83854,0.19559 -2.19023,-0.0309 -2.58065,-0.22467 -2.42917,-0.42797 -2.38284,-0.63966 -2.31333,-0.85524 -2.33604,-1.12391 -1.35321,-0.8575 -1.10946,-0.97844 -1.0214,-1.23412 -0.76107,-1.26835 -0.61704,-1.4791 -0.48724,-1.23487 -0.99046,-0.92534 -1.22454,-0.82966 -1.55181,-0.7563 -1.86737,-0.63522 -2.16604,-0.48694 -2.56838,-0.33761 -3.56392,-0.39335 -0.63991,-0.3679 -0.60525,-0.61144 -0.37029,-0.63856 -0.21811,-0.83262 -0.003,-0.71732 0.39961,-4.54405 0.14369,-4.8092 -0.0875,-1.62534 -16.04159,-0.0806 -0.80112,-0.3137 -0.59653,-0.43462 -0.53748,-0.67164 -0.29816,-0.67509 -0.12782,-0.71757 -0.13526,-3.94419 -0.1641,-7.52405 -0.12146,0.0217 -4.35005,0.8912 -2.5843,0.78154 -2.76938,1.04645 -2.45355,1.15872 -2.12588,1.25035 -1.78845,1.31564 -1.44709,1.341 -1.18673,1.41772 -0.85738,1.35454 -0.65997,1.4602 -0.15034,0.71589 -0.16599,2.08978 -0.39495,2.05894 -0.66117,2.11884 -0.8403,1.9206 -1.03501,1.82328 -1.21258,1.71017 -1.37313,1.58449 -1.51674,1.44757 -1.64449,1.30065 -1.75736,1.14409 -1.96672,1.02914 -2.17585,0.86865 -2.13692,0.60187 -2.06581,0.35735 -2.09174,0.13938 -1.72474,-0.0914 -0.80922,-0.29275 -0.69164,-0.51197 -0.5276,-0.67949 -0.31112,-0.80233 -0.0818,-0.73275 -0.10633,-2.70833 -0.324,-1.69565 -0.54588,-1.76717 -0.84166,-1.92032 -1.05337,-1.81223 -1.2449,-1.68643 -1.42163,-1.5407 -1.48815,-1.2959 -1.73001,-1.18306 -1.75548,-0.90033 -1.74112,-0.62328 -1.44524,-0.29016 -2.09448,-0.0903 -1.95317,-0.28236 -2.03462,-0.50588 -1.9728,-0.70914 -1.89342,-0.89994 -1.79969,-1.07638 -1.78928,-1.31407 -1.74648,-1.56249 -1.58902,-1.7221 -1.42226,-1.86245 -1.2457,-1.98451 -1.05987,-2.09052 -0.90193,-2.29561 -0.64331,-2.25337 -0.43758,-2.42728 -0.17686,-2.33636 0.0101,-5.4303 0.19986,-0.83683 0.42331,-0.74914 0.61716,-0.59927 0.75732,-0.40844 0.8413,-0.17494 2.09667,-0.0116 13.59051,-0.10175 0.11071,-18.14034 0.0387,-3.81118 -18.49933,-0.13622 -0.79111,-0.33861 -0.66222,-0.54909 -0.48879,-0.70807 -0.26547,-0.81796 -0.052,-0.85989 0.10547,-15.67437 0.29182,-1.7015 0.4974,-1.65305 0.70457,-1.57576 0.90668,-1.4565 1.04791,-1.212 1.12575,-0.95976 1.26247,-0.77006 1.25562,-0.51042 1.32253,-0.29749 0.49055,-0.0521 0,0"
             clip-path="url(#p98d6240cf1)"
             inkscape:connector-curvature="0" />
        </g>
        <g
           id="line2d_2-1"
           style="stroke-linecap:butt;stroke-linejoin:round">
          <path
             id="path3972"
             style="fill:none;stroke:#1f77b4;stroke-width:1.5;stroke-linecap:square;stroke-linejoin:round"
             d="M 131.36677,111.14085"
             clip-path="url(#p98d6240cf1)"
             inkscape:connector-curvature="0" />
          <defs
             id="defs3974">
            <path
               style="stroke:#000000;stroke-linecap:butt;stroke-linejoin:round"
               id="mf9dd963844"
               d="M 0,7.5 C 1.989023,7.5 3.896849,6.709753 5.303301,5.303301 6.709753,3.896849 7.5,1.989023 7.5,0 7.5,-1.989023 6.709753,-3.896849 5.303301,-5.303301 3.896849,-6.709753 1.989023,-7.5 0,-7.5 c -1.989023,0 -3.896849,0.790247 -5.303301,2.196699 C -6.709753,-3.896849 -7.5,-1.989023 -7.5,0 c 0,1.989023 0.790247,3.896849 2.196699,5.303301 C -3.896849,6.709753 -1.989023,7.5 0,7.5 Z"
               inkscape:connector-curvature="0" />
          </defs>
          <g
             id="g3977"
             clip-path="url(#p98d6240cf1)"
             style="stroke-linecap:butt;stroke-linejoin:round">
            <use
               id="use3979"
               y="111.14085"
               xlink:href="#mf9dd963844"
               x="131.36678"
               style="fill:#f2f2f2;stroke:#000000;stroke-linecap:butt;stroke-linejoin:round"
               width="100%"
               height="100%" />
          </g>
        </g>
        <g
           id="line2d_3-2"
           style="stroke-linecap:butt;stroke-linejoin:round">
          <path
             id="path3982"
             style="fill:none;stroke:#ff7f0e;stroke-width:1.5;stroke-linecap:square;stroke-linejoin:round"
             d="M 276.73086,89.920461"
             clip-path="url(#p98d6240cf1)"
             inkscape:connector-curvature="0" />
          <defs
             id="defs3984">
            <path
               style="stroke:#000000;stroke-linecap:butt;stroke-linejoin:round"
               id="m213e4efb55"
               d="M 0,7.5 C 1.989023,7.5 3.896849,6.709753 5.303301,5.303301 6.709753,3.896849 7.5,1.989023 7.5,0 7.5,-1.989023 6.709753,-3.896849 5.303301,-5.303301 3.896849,-6.709753 1.989023,-7.5 0,-7.5 c -1.989023,0 -3.896849,0.790247 -5.303301,2.196699 C -6.709753,-3.896849 -7.5,-1.989023 -7.5,0 c 0,1.989023 0.790247,3.896849 2.196699,5.303301 C -3.896849,6.709753 -1.989023,7.5 0,7.5 Z"
               inkscape:connector-curvature="0" />
          </defs>
          <g
             id="g3987"
             clip-path="url(#p98d6240cf1)"
             style="stroke-linecap:butt;stroke-linejoin:round">
            <use
               id="use3989"
               y="89.920464"
               xlink:href="#m213e4efb55"
               x="276.73087"
               style="stroke:#000000;stroke-linecap:butt;stroke-linejoin:round"
               width="100%"
               height="100%" />
          </g>
        </g>
      </g>
    </g>
    <g
       id="figure_1-7"
       transform="matrix(0.33730159,0,0,0.33730159,473.24124,52.734982)"
       style="stroke-linecap:butt;stroke-linejoin:round">
      <g
         id="axes_1-2"
         style="stroke-linecap:butt;stroke-linejoin:round">
        <g
           id="patch_2-5"
           style="stroke-linecap:butt;stroke-linejoin:round">
          <path
             id="path4033"
             style="fill:none;stroke:#000000;stroke-linecap:butt;stroke-linejoin:miter"
             d="m 61.006,245.2675 320.788,0 0,-201.1094 -320.788,0 z"
             clip-path="url(#p1431f9fd56)"
             inkscape:connector-curvature="0" />
        </g>
        <g
           id="line2d_1-58"
           style="stroke-linecap:butt;stroke-linejoin:round">
          <path
             id="path4036"
             style="fill:none;stroke:#000000;stroke-width:1.5;stroke-linecap:square;stroke-linejoin:round"
             d="m 221.4,144.7128 16.53986,-16.41658 9.35635,-9.00385 6.93695,-6.43744 6.84694,-6.0884 6.73819,-5.67265 6.61096,-5.194759 4.32766,-3.169331 4.25777,-2.916074 4.18271,-2.648612 4.10255,-2.368245 4.01738,-2.07634 3.92733,-1.774321 3.83248,-1.463655 3.73298,-1.145861 3.62891,-0.822483 3.52043,-0.495098 3.40767,-0.165301 3.29074,0.165301 3.16981,0.495098 3.04503,0.822483 2.91651,1.145861 2.78447,1.463655 2.64901,1.774321 2.51034,2.07634 2.36861,2.368245 2.22398,2.648612 2.07666,2.916074 1.9268,3.169331 1.77459,3.407145 1.62022,3.628364 1.46388,3.8319 1.30575,4.01677 1.14604,4.18207 0.98492,4.327 0.82261,4.45085 0.65929,4.553 0.49517,4.63299 0.33045,4.69039 0.16533,4.72496 0,4.73648 -0.16533,4.72496 -0.33045,4.69039 -0.49517,4.63299 -0.65929,4.553 -0.82261,4.45085 -0.98492,4.327 -1.14604,4.18207 -1.30575,4.01677 -1.46388,3.8319 -1.62022,3.62836 -1.77459,3.40715 -1.9268,3.16933 -2.07666,2.91607 -2.22398,2.64862 -2.36861,2.36824 -2.51034,2.07634 -2.64901,1.77432 -2.78447,1.46366 -2.91651,1.14586 -3.04503,0.82248 -3.16981,0.4951 -3.29074,0.1653 -3.40767,-0.1653 -3.52043,-0.4951 -3.62891,-0.82248 -3.73298,-1.14586 -3.83248,-1.46366 -3.92733,-1.77432 -4.01738,-2.07634 -4.10255,-2.36824 -4.18271,-2.64862 -4.25777,-2.91607 -4.32766,-3.16933 -6.61096,-5.19476 -6.73819,-5.67265 -6.84694,-6.0884 -6.93695,-6.43744 -9.35635,-9.00385 -14.17125,-14.04834 -18.90847,-18.78482 -9.35636,-9.00385 -6.93694,-6.43744 -6.84694,-6.0884 -6.73819,-5.67265 -6.61096,-5.194759 -4.32766,-3.169331 -4.25777,-2.916074 -4.18271,-2.648612 -4.10255,-2.368245 -4.01738,-2.07634 -3.92733,-1.774321 -3.83248,-1.463655 -3.73298,-1.145861 -3.62891,-0.822483 -3.52043,-0.495098 -3.40767,-0.165301 -3.29074,0.165301 -3.16982,0.495098 -3.04502,0.822483 -2.91651,1.145861 -2.78447,1.463655 -2.64901,1.774321 -2.51034,2.07634 -2.36861,2.368245 -2.22398,2.648612 -2.07666,2.916074 -1.926798,3.169331 -1.77459,3.407145 -1.620222,3.628364 -1.463879,3.8319 -1.305752,4.01677 -1.146035,4.18207 -0.984922,4.327 -0.822608,4.45085 -0.659293,4.553 -0.495173,4.63299 -0.330451,4.69039 -0.165326,4.72496 0,4.73648 0.165326,4.72496 0.330451,4.69039 0.495173,4.63299 0.659293,4.553 0.822608,4.45085 0.984922,4.327 1.146035,4.18207 1.305752,4.01677 1.463879,3.8319 1.620222,3.62836 1.77459,3.40715 1.926798,3.16933 2.07666,2.91607 2.22398,2.64862 2.36861,2.36824 2.51034,2.07634 2.64901,1.77432 2.78447,1.46366 2.91651,1.14586 3.04502,0.82248 3.16982,0.4951 3.29074,0.1653 3.40767,-0.1653 3.52043,-0.4951 3.62891,-0.82248 3.73298,-1.14586 3.83248,-1.46366 3.92733,-1.77432 4.01738,-2.07634 4.10255,-2.36824 4.18271,-2.64862 4.25777,-2.91607 4.32766,-3.16933 6.61096,-5.19476 6.73819,-5.67265 6.84694,-6.0884 6.93694,-6.43744 9.35636,-9.00385 14.17125,-14.04834 18.90847,-18.78482 9.35635,-9.00385 6.93695,-6.43744 6.84694,-6.0884 6.73819,-5.67265 6.61096,-5.194759 4.32766,-3.169331 4.25777,-2.916074 4.18271,-2.648612 4.10255,-2.368245 4.01738,-2.07634 3.92733,-1.774321 3.83248,-1.463655 3.73298,-1.145861 3.62891,-0.822483 3.52043,-0.495098 3.40767,-0.165301 3.29074,0.165301 3.16981,0.495098 3.04503,0.822483 2.91651,1.145861 2.78447,1.463655 2.64901,1.774321 2.51034,2.07634 2.36861,2.368245 2.22398,2.648612 2.07666,2.916074 1.9268,3.169331 1.77459,3.407145 1.62022,3.628364 1.46388,3.8319 1.30575,4.01677 1.14604,4.18207 0.98492,4.327 0.82261,4.45085 0.65929,4.553 0.49517,4.63299 0.33045,4.69039 0.16533,4.72496 0,4.73648 -0.16533,4.72496 -0.33045,4.69039 -0.49517,4.63299 -0.65929,4.553 -0.82261,4.45085 -0.98492,4.327 -1.14604,4.18207 -1.30575,4.01677 -1.46388,3.8319 -1.62022,3.62836 -1.77459,3.40715 -1.9268,3.16933 -2.07666,2.91607 -2.22398,2.64862 -2.36861,2.36824 -2.51034,2.07634 -2.64901,1.77432 -2.78447,1.46366 -2.91651,1.14586 -3.04503,0.82248 -3.16981,0.4951 -3.29074,0.1653 -3.40767,-0.1653 -3.52043,-0.4951 -3.62891,-0.82248 -3.73298,-1.14586 -3.83248,-1.46366 -3.92733,-1.77432 -4.01738,-2.07634 -4.10255,-2.36824 -4.18271,-2.64862 -4.25777,-2.91607 -4.32766,-3.16933 -6.61096,-5.19476 -6.73819,-5.67265 -6.84694,-6.0884 -6.93695,-6.43744 -9.35635,-9.00385 -14.17125,-14.04834 -18.90847,-18.78482 -9.35636,-9.00385 -6.93694,-6.43744 -6.84694,-6.0884 -6.73819,-5.67265 -6.61096,-5.194759 -4.32766,-3.169331 -4.25777,-2.916074 -4.18271,-2.648612 -4.10255,-2.368245 -4.01738,-2.07634 -3.92733,-1.774321 -3.83248,-1.463655 -3.73298,-1.145861 -3.62891,-0.822483 -3.52043,-0.495098 -3.40767,-0.165301 -3.29074,0.165301 -3.16982,0.495098 -3.04502,0.822483 -2.91651,1.145861 -2.78447,1.463655 -2.64901,1.774321 -2.51034,2.07634 -2.36861,2.368245 -2.22398,2.648612 -2.07666,2.916074 -1.926798,3.169331 -1.77459,3.407145 -1.620222,3.628364 -1.463879,3.8319 -1.305752,4.01677 -1.146035,4.18207 -0.984922,4.327 -0.822608,4.45085 -0.659293,4.553 -0.495173,4.63299 -0.330451,4.69039 -0.165326,4.72496 0,4.73648 0.165326,4.72496 0.330451,4.69039 0.495173,4.63299 0.659293,4.553 0.822608,4.45085 0.984922,4.327 1.146035,4.18207 1.305752,4.01677 1.463879,3.8319 1.620222,3.62836 1.77459,3.40715 1.926798,3.16933 2.07666,2.91607 2.22398,2.64862 2.36861,2.36824 2.51034,2.07634 2.64901,1.77432 2.78447,1.46366 2.91651,1.14586 3.04502,0.82248 3.16982,0.4951 3.29074,0.1653 3.40767,-0.1653 3.52043,-0.4951 3.62891,-0.82248 3.73298,-1.14586 3.83248,-1.46366 3.92733,-1.77432 4.01738,-2.07634 4.10255,-2.36824 4.18271,-2.64862 4.25777,-2.91607 4.32766,-3.16933 6.61096,-5.19476 6.73819,-5.67265 6.84694,-6.0884 6.93694,-6.43744 9.35636,-9.00385 14.17125,-14.04834 18.90847,-18.78482 9.35635,-9.00385 6.93695,-6.43744 6.84694,-6.0884 6.73819,-5.67265 6.61096,-5.194759 4.32766,-3.169331 4.25777,-2.916074 4.18271,-2.648612 4.10255,-2.368245 4.01738,-2.07634 3.92733,-1.774321 3.83248,-1.463655 3.73298,-1.145861 3.62891,-0.822483 3.52043,-0.495098 3.40767,-0.165301 3.29074,0.165301 3.16981,0.495098 3.04503,0.822483 2.91651,1.145861 2.78447,1.463655 2.64901,1.774321 2.51034,2.07634 2.36861,2.368245 2.22398,2.648612 2.07666,2.916074 1.9268,3.169331 1.77459,3.407145 1.62022,3.628364 1.46388,3.8319 1.30575,4.01677 1.14604,4.18207 0.98492,4.327 0.82261,4.45085 0.65929,4.553 0.49517,4.63299 0.33045,4.69039 0.16533,4.72496 0,4.73648 -0.16533,4.72496 -0.33045,4.69039 -0.49517,4.63299 -0.65929,4.553 -0.82261,4.45085 -0.98492,4.327 -1.14604,4.18207 -1.30575,4.01677 -1.46388,3.8319 -1.62022,3.62836 -1.77459,3.40715 -1.9268,3.16933 -2.07666,2.91607 -2.22398,2.64862 -2.36861,2.36824 -2.51034,2.07634 -2.64901,1.77432 -2.78447,1.46366 -2.91651,1.14586 -3.04503,0.82248 -3.16981,0.4951 -3.29074,0.1653 -3.40767,-0.1653 -3.52043,-0.4951 -3.62891,-0.82248 -3.73298,-1.14586 -3.83248,-1.46366 -3.92733,-1.77432 -4.01738,-2.07634 -4.10255,-2.36824 -4.18271,-2.64862 -4.25777,-2.91607 -4.32766,-3.16933 -6.61096,-5.19476 -6.73819,-5.67265 -6.84694,-6.0884 -6.93695,-6.43744 -9.35635,-9.00385 -14.17125,-14.04834 -18.90847,-18.78482 -9.35636,-9.00385 -6.93694,-6.43744 -6.84694,-6.0884 -6.73819,-5.67265 -6.61096,-5.194759 -4.32766,-3.169331 -4.25777,-2.916074 -4.18271,-2.648612 -4.10255,-2.368245 -4.01738,-2.07634 -3.92733,-1.774321 -3.83248,-1.463655 -3.73298,-1.145861 -3.62891,-0.822483 -3.52043,-0.495098 -3.40767,-0.165301 -3.29074,0.165301 -3.16982,0.495098 -3.04502,0.822483 -2.91651,1.145861 -2.78447,1.463655 -2.64901,1.774321 -2.51034,2.07634 -2.36861,2.368245 -2.22398,2.648612 -2.07666,2.916074 -1.926798,3.169331 -1.77459,3.407145 -1.620222,3.628364 -1.463879,3.8319 -1.305752,4.01677 -1.146035,4.18207 -0.984922,4.327 -0.822608,4.45085 -0.659293,4.553 -0.495173,4.63299 -0.330451,4.69039 -0.165326,4.72496 0,4.73648 0.165326,4.72496 0.330451,4.69039 0.495173,4.63299 0.659293,4.553 0.822608,4.45085 0.984922,4.327 1.146035,4.18207 1.305752,4.01677 1.463879,3.8319 1.620222,3.62836 1.77459,3.40715 1.926798,3.16933 2.07666,2.91607 2.22398,2.64862 2.36861,2.36824 2.51034,2.07634 2.64901,1.77432 2.78447,1.46366 2.91651,1.14586 3.04502,0.82248 3.16982,0.4951 3.29074,0.1653 3.40767,-0.1653 3.52043,-0.4951 3.62891,-0.82248 3.73298,-1.14586 3.83248,-1.46366 3.92733,-1.77432 4.01738,-2.07634 4.10255,-2.36824 4.18271,-2.64862 4.25777,-2.91607 4.32766,-3.16933 6.61096,-5.19476 6.73819,-5.67265 6.84694,-6.0884 6.93694,-6.43744 9.35636,-9.00385 14.17125,-14.04834 2.36861,-2.36824 0,0"
             clip-path="url(#p1431f9fd56)"
             inkscape:connector-curvature="0" />
        </g>
        <g
           id="line2d_2-15"
           style="stroke-linecap:butt;stroke-linejoin:round">
          <path
             id="path4039"
             style="fill:none;stroke:#1f77b4;stroke-width:1.5;stroke-linecap:square;stroke-linejoin:round"
             d="M 256.5264,110.7833"
             clip-path="url(#p1431f9fd56)"
             inkscape:connector-curvature="0" />
          <defs
             id="defs4041">
            <path
               style="stroke:#000000;stroke-linecap:butt;stroke-linejoin:round"
               id="medbfa1aadb"
               d="M 0,7.5 C 1.989023,7.5 3.896849,6.709753 5.303301,5.303301 6.709753,3.896849 7.5,1.989023 7.5,0 7.5,-1.989023 6.709753,-3.896849 5.303301,-5.303301 3.896849,-6.709753 1.989023,-7.5 0,-7.5 c -1.989023,0 -3.896849,0.790247 -5.303301,2.196699 C -6.709753,-3.896849 -7.5,-1.989023 -7.5,0 c 0,1.989023 0.790247,3.896849 2.196699,5.303301 C -3.896849,6.709753 -1.989023,7.5 0,7.5 Z"
               inkscape:connector-curvature="0" />
          </defs>
          <g
             id="g4044"
             clip-path="url(#p1431f9fd56)"
             style="stroke-linecap:butt;stroke-linejoin:round">
            <use
               id="use4046"
               y="110.7833"
               xlink:href="#medbfa1aadb"
               x="256.5264"
               style="fill:#f2f2f2;stroke:#000000;stroke-linecap:butt;stroke-linejoin:round"
               width="100%"
               height="100%" />
          </g>
        </g>
      </g>
    </g>
    <g
       id="figure_1-4"
       transform="matrix(0.33730159,0,0,0.33730159,361.23969,52.734982)"
       style="stroke-linecap:butt;stroke-linejoin:round">
      <g
         id="axes_1-5"
         style="stroke-linecap:butt;stroke-linejoin:round">
        <g
           id="patch_2-0"
           style="stroke-linecap:butt;stroke-linejoin:round">
          <path
             id="path4084"
             style="fill:none;stroke:#000000;stroke-linecap:butt;stroke-linejoin:miter"
             d="m 61.006,245.2675 320.788,0 0,-201.1094 -320.788,0 z"
             clip-path="url(#pbfb6ce85bd)"
             inkscape:connector-curvature="0" />
        </g>
        <g
           id="line2d_1-6"
           style="stroke-linecap:butt;stroke-linejoin:round">
          <path
             id="path4087"
             style="fill:none;stroke:#000000;stroke-width:1.5;stroke-linecap:butt;stroke-linejoin:round;stroke-dasharray:7.5, 18;stroke-dashoffset:0"
             d="m 221.4,144.7128 16.53986,-16.41658 9.35635,-9.00385 6.93695,-6.43744 6.84694,-6.0884 6.73819,-5.67265 6.61096,-5.194759 4.32766,-3.169331 4.25777,-2.916074 4.18271,-2.648612 4.10255,-2.368245 4.01738,-2.07634 3.92733,-1.774321 3.83248,-1.463655 3.73298,-1.145861 3.62891,-0.822483 3.52043,-0.495098 3.40767,-0.165301 3.29074,0.165301 3.16981,0.495098 3.04503,0.822483 2.91651,1.145861 2.78447,1.463655 2.64901,1.774321 2.51034,2.07634 2.36861,2.368245 2.22398,2.648612 2.07666,2.916074 1.9268,3.169331 1.77459,3.407145 1.62022,3.628364 1.46388,3.8319 1.30575,4.01677 1.14604,4.18207 0.98492,4.327 0.82261,4.45085 0.65929,4.553 0.49517,4.63299 0.33045,4.69039 0.16533,4.72496 0,4.73648 -0.16533,4.72496 -0.33045,4.69039 -0.49517,4.63299 -0.65929,4.553 -0.82261,4.45085 -0.98492,4.327 -1.14604,4.18207 -1.30575,4.01677 -1.46388,3.8319 -1.62022,3.62836 -1.77459,3.40715 -1.9268,3.16933 -2.07666,2.91607 -2.22398,2.64862 -2.36861,2.36824 -2.51034,2.07634 -2.64901,1.77432 -2.78447,1.46366 -2.91651,1.14586 -3.04503,0.82248 -3.16981,0.4951 -3.29074,0.1653 -3.40767,-0.1653 -3.52043,-0.4951 -3.62891,-0.82248 -3.73298,-1.14586 -3.83248,-1.46366 -3.92733,-1.77432 -4.01738,-2.07634 -4.10255,-2.36824 -4.18271,-2.64862 -4.25777,-2.91607 -4.32766,-3.16933 -6.61096,-5.19476 -6.73819,-5.67265 -6.84694,-6.0884 -6.93695,-6.43744 -9.35635,-9.00385 -14.17125,-14.04834 -18.90847,-18.78482 -9.35636,-9.00385 -6.93694,-6.43744 -6.84694,-6.0884 -6.73819,-5.67265 -6.61096,-5.194759 -4.32766,-3.169331 -4.25777,-2.916074 -4.18271,-2.648612 -4.10255,-2.368245 -4.01738,-2.07634 -3.92733,-1.774321 -3.83248,-1.463655 -3.73298,-1.145861 -3.62891,-0.822483 -3.52043,-0.495098 -3.40767,-0.165301 -3.29074,0.165301 -3.16982,0.495098 -3.04502,0.822483 -2.91651,1.145861 -2.78447,1.463655 -2.64901,1.774321 -2.51034,2.07634 -2.36861,2.368245 -2.22398,2.648612 -2.07666,2.916074 -1.926798,3.169331 -1.77459,3.407145 -1.620222,3.628364 -1.463879,3.8319 -1.305752,4.01677 -1.146035,4.18207 -0.984922,4.327 -0.822608,4.45085 -0.659293,4.553 -0.495173,4.63299 -0.330451,4.69039 -0.165326,4.72496 0,4.73648 0.165326,4.72496 0.330451,4.69039 0.495173,4.63299 0.659293,4.553 0.822608,4.45085 0.984922,4.327 1.146035,4.18207 1.305752,4.01677 1.463879,3.8319 1.620222,3.62836 1.77459,3.40715 1.926798,3.16933 2.07666,2.91607 2.22398,2.64862 2.36861,2.36824 2.51034,2.07634 2.64901,1.77432 2.78447,1.46366 2.91651,1.14586 3.04502,0.82248 3.16982,0.4951 3.29074,0.1653 3.40767,-0.1653 3.52043,-0.4951 3.62891,-0.82248 3.73298,-1.14586 3.83248,-1.46366 3.92733,-1.77432 4.01738,-2.07634 4.10255,-2.36824 4.18271,-2.64862 4.25777,-2.91607 4.32766,-3.16933 6.61096,-5.19476 6.73819,-5.67265 6.84694,-6.0884 6.93694,-6.43744 9.35636,-9.00385 14.17125,-14.04834 18.90847,-18.78482 9.35635,-9.00385 6.93695,-6.43744 6.84694,-6.0884 6.73819,-5.67265 6.61096,-5.194759 4.32766,-3.169331 4.25777,-2.916074 4.18271,-2.648612 4.10255,-2.368245 4.01738,-2.07634 3.92733,-1.774321 3.83248,-1.463655 3.73298,-1.145861 3.62891,-0.822483 3.52043,-0.495098 3.40767,-0.165301 3.29074,0.165301 3.16981,0.495098 3.04503,0.822483 2.91651,1.145861 2.78447,1.463655 2.64901,1.774321 2.51034,2.07634 2.36861,2.368245 2.22398,2.648612 2.07666,2.916074 1.9268,3.169331 1.77459,3.407145 1.62022,3.628364 1.46388,3.8319 1.30575,4.01677 1.14604,4.18207 0.98492,4.327 0.82261,4.45085 0.65929,4.553 0.49517,4.63299 0.33045,4.69039 0.16533,4.72496 0,4.73648 -0.16533,4.72496 -0.33045,4.69039 -0.49517,4.63299 -0.65929,4.553 -0.82261,4.45085 -0.98492,4.327 -1.14604,4.18207 -1.30575,4.01677 -1.46388,3.8319 -1.62022,3.62836 -1.77459,3.40715 -1.9268,3.16933 -2.07666,2.91607 -2.22398,2.64862 -2.36861,2.36824 -2.51034,2.07634 -2.64901,1.77432 -2.78447,1.46366 -2.91651,1.14586 -3.04503,0.82248 -3.16981,0.4951 -3.29074,0.1653 -3.40767,-0.1653 -3.52043,-0.4951 -3.62891,-0.82248 -3.73298,-1.14586 -3.83248,-1.46366 -3.92733,-1.77432 -4.01738,-2.07634 -4.10255,-2.36824 -4.18271,-2.64862 -4.25777,-2.91607 -4.32766,-3.16933 -6.61096,-5.19476 -6.73819,-5.67265 -6.84694,-6.0884 -6.93695,-6.43744 -9.35635,-9.00385 -14.17125,-14.04834 -18.90847,-18.78482 -9.35636,-9.00385 -6.93694,-6.43744 -6.84694,-6.0884 -6.73819,-5.67265 -6.61096,-5.194759 -4.32766,-3.169331 -4.25777,-2.916074 -4.18271,-2.648612 -4.10255,-2.368245 -4.01738,-2.07634 -3.92733,-1.774321 -3.83248,-1.463655 -3.73298,-1.145861 -3.62891,-0.822483 -3.52043,-0.495098 -3.40767,-0.165301 -3.29074,0.165301 -3.16982,0.495098 -3.04502,0.822483 -2.91651,1.145861 -2.78447,1.463655 -2.64901,1.774321 -2.51034,2.07634 -2.36861,2.368245 -2.22398,2.648612 -2.07666,2.916074 -1.926798,3.169331 -1.77459,3.407145 -1.620222,3.628364 -1.463879,3.8319 -1.305752,4.01677 -1.146035,4.18207 -0.984922,4.327 -0.822608,4.45085 -0.659293,4.553 -0.495173,4.63299 -0.330451,4.69039 -0.165326,4.72496 0,4.73648 0.165326,4.72496 0.330451,4.69039 0.495173,4.63299 0.659293,4.553 0.822608,4.45085 0.984922,4.327 1.146035,4.18207 1.305752,4.01677 1.463879,3.8319 1.620222,3.62836 1.77459,3.40715 1.926798,3.16933 2.07666,2.91607 2.22398,2.64862 2.36861,2.36824 2.51034,2.07634 2.64901,1.77432 2.78447,1.46366 2.91651,1.14586 3.04502,0.82248 3.16982,0.4951 3.29074,0.1653 3.40767,-0.1653 3.52043,-0.4951 3.62891,-0.82248 3.73298,-1.14586 3.83248,-1.46366 3.92733,-1.77432 4.01738,-2.07634 4.10255,-2.36824 4.18271,-2.64862 4.25777,-2.91607 4.32766,-3.16933 6.61096,-5.19476 6.73819,-5.67265 6.84694,-6.0884 6.93694,-6.43744 9.35636,-9.00385 14.17125,-14.04834 18.90847,-18.78482 9.35635,-9.00385 6.93695,-6.43744 6.84694,-6.0884 6.73819,-5.67265 6.61096,-5.194759 4.32766,-3.169331 4.25777,-2.916074 4.18271,-2.648612 4.10255,-2.368245 4.01738,-2.07634 3.92733,-1.774321 3.83248,-1.463655 3.73298,-1.145861 3.62891,-0.822483 3.52043,-0.495098 3.40767,-0.165301 3.29074,0.165301 3.16981,0.495098 3.04503,0.822483 2.91651,1.145861 2.78447,1.463655 2.64901,1.774321 2.51034,2.07634 2.36861,2.368245 2.22398,2.648612 2.07666,2.916074 1.9268,3.169331 1.77459,3.407145 1.62022,3.628364 1.46388,3.8319 1.30575,4.01677 1.14604,4.18207 0.98492,4.327 0.82261,4.45085 0.65929,4.553 0.49517,4.63299 0.33045,4.69039 0.16533,4.72496 0,4.73648 -0.16533,4.72496 -0.33045,4.69039 -0.49517,4.63299 -0.65929,4.553 -0.82261,4.45085 -0.98492,4.327 -1.14604,4.18207 -1.30575,4.01677 -1.46388,3.8319 -1.62022,3.62836 -1.77459,3.40715 -1.9268,3.16933 -2.07666,2.91607 -2.22398,2.64862 -2.36861,2.36824 -2.51034,2.07634 -2.64901,1.77432 -2.78447,1.46366 -2.91651,1.14586 -3.04503,0.82248 -3.16981,0.4951 -3.29074,0.1653 -3.40767,-0.1653 -3.52043,-0.4951 -3.62891,-0.82248 -3.73298,-1.14586 -3.83248,-1.46366 -3.92733,-1.77432 -4.01738,-2.07634 -4.10255,-2.36824 -4.18271,-2.64862 -4.25777,-2.91607 -4.32766,-3.16933 -6.61096,-5.19476 -6.73819,-5.67265 -6.84694,-6.0884 -6.93695,-6.43744 -9.35635,-9.00385 -14.17125,-14.04834 -18.90847,-18.78482 -9.35636,-9.00385 -6.93694,-6.43744 -6.84694,-6.0884 -6.73819,-5.67265 -6.61096,-5.194759 -4.32766,-3.169331 -4.25777,-2.916074 -4.18271,-2.648612 -4.10255,-2.368245 -4.01738,-2.07634 -3.92733,-1.774321 -3.83248,-1.463655 -3.73298,-1.145861 -3.62891,-0.822483 -3.52043,-0.495098 -3.40767,-0.165301 -3.29074,0.165301 -3.16982,0.495098 -3.04502,0.822483 -2.91651,1.145861 -2.78447,1.463655 -2.64901,1.774321 -2.51034,2.07634 -2.36861,2.368245 -2.22398,2.648612 -2.07666,2.916074 -1.926798,3.169331 -1.77459,3.407145 -1.620222,3.628364 -1.463879,3.8319 -1.305752,4.01677 -1.146035,4.18207 -0.984922,4.327 -0.822608,4.45085 -0.659293,4.553 -0.495173,4.63299 -0.330451,4.69039 -0.165326,4.72496 0,4.73648 0.165326,4.72496 0.330451,4.69039 0.495173,4.63299 0.659293,4.553 0.822608,4.45085 0.984922,4.327 1.146035,4.18207 1.305752,4.01677 1.463879,3.8319 1.620222,3.62836 1.77459,3.40715 1.926798,3.16933 2.07666,2.91607 2.22398,2.64862 2.36861,2.36824 2.51034,2.07634 2.64901,1.77432 2.78447,1.46366 2.91651,1.14586 3.04502,0.82248 3.16982,0.4951 3.29074,0.1653 3.40767,-0.1653 3.52043,-0.4951 3.62891,-0.82248 3.73298,-1.14586 3.83248,-1.46366 3.92733,-1.77432 4.01738,-2.07634 4.10255,-2.36824 4.18271,-2.64862 4.25777,-2.91607 4.32766,-3.16933 6.61096,-5.19476 6.73819,-5.67265 6.84694,-6.0884 6.93694,-6.43744 9.35636,-9.00385 14.17125,-14.04834 2.36861,-2.36824 0,0"
             clip-path="url(#pbfb6ce85bd)"
             inkscape:connector-curvature="0" />
        </g>
        <g
           id="line2d_2-55"
           style="stroke-linecap:butt;stroke-linejoin:round">
          <path
             id="path4090"
             style="fill:none;stroke:#1f77b4;stroke-width:1.5;stroke-linecap:square;stroke-linejoin:round"
             d="M 256.5264,110.7833"
             clip-path="url(#pbfb6ce85bd)"
             inkscape:connector-curvature="0" />
          <defs
             id="defs4092">
            <path
               style="stroke:#000000;stroke-linecap:butt;stroke-linejoin:round"
               id="md948a33572"
               d="M 0,7.5 C 1.989023,7.5 3.896849,6.709753 5.303301,5.303301 6.709753,3.896849 7.5,1.989023 7.5,0 7.5,-1.989023 6.709753,-3.896849 5.303301,-5.303301 3.896849,-6.709753 1.989023,-7.5 0,-7.5 c -1.989023,0 -3.896849,0.790247 -5.303301,2.196699 C -6.709753,-3.896849 -7.5,-1.989023 -7.5,0 c 0,1.989023 0.790247,3.896849 2.196699,5.303301 C -3.896849,6.709753 -1.989023,7.5 0,7.5 Z"
               inkscape:connector-curvature="0" />
          </defs>
          <g
             id="g4095"
             clip-path="url(#pbfb6ce85bd)"
             style="stroke-linecap:butt;stroke-linejoin:round">
            <use
               id="use4097"
               y="110.7833"
               xlink:href="#md948a33572"
               x="256.5264"
               style="fill:#f2f2f2;stroke:#000000;stroke-linecap:butt;stroke-linejoin:round"
               width="100%"
               height="100%" />
          </g>
        </g>
      </g>
    </g>
    <flowRoot
       xml:space="preserve"
       id="flowRoot4248"
       style="font-style:normal;font-weight:normal;font-size:40px;line-height:125%;font-family:sans-serif;letter-spacing:0px;word-spacing:0px;fill:#000000;fill-opacity:1;stroke:none;stroke-width:1px;stroke-linecap:butt;stroke-linejoin:miter;stroke-opacity:1"
       transform="translate(6.0203051,34.160773)"><flowRegion
         id="flowRegion4250"
         style="stroke-linecap:butt;stroke-linejoin:round"><rect
           id="rect4252"
           width="86.873116"
           height="72.73098"
           x="15.152288"
           y="-1.2269001"
           style="stroke-linecap:butt;stroke-linejoin:round" /></flowRegion><flowPara
         id="flowPara4254"
         style="font-size:22.5px;stroke-linecap:butt;stroke-linejoin:round">a</flowPara></flowRoot>    <flowRoot
       xml:space="preserve"
       id="flowRoot4248-5"
       style="font-style:normal;font-weight:normal;font-size:40px;line-height:125%;font-family:sans-serif;letter-spacing:0px;word-spacing:0px;fill:#000000;fill-opacity:1;stroke:none;stroke-width:1px;stroke-linecap:butt;stroke-linejoin:miter;stroke-opacity:1"
       transform="translate(240.38554,36.423957)"><flowRegion
         id="flowRegion4250-4"
         style="stroke-linecap:butt;stroke-linejoin:round"><rect
           id="rect4252-5"
           width="86.873116"
           height="72.73098"
           x="15.152288"
           y="-1.2269001"
           style="stroke-linecap:butt;stroke-linejoin:round" /></flowRegion><flowPara
         id="flowPara4254-2"
         style="font-size:22.5px;stroke-linecap:butt;stroke-linejoin:round">b</flowPara></flowRoot>    <flowRoot
       xml:space="preserve"
       id="flowRoot4248-5-0"
       style="font-style:normal;font-weight:normal;font-size:40px;line-height:125%;font-family:sans-serif;letter-spacing:0px;word-spacing:0px;fill:#000000;fill-opacity:1;stroke:none;stroke-width:1px;stroke-linecap:butt;stroke-linejoin:miter;stroke-opacity:1"
       transform="translate(365.29623,34.188239)"><flowRegion
         id="flowRegion4250-4-9"
         style="stroke-linecap:butt;stroke-linejoin:round"><rect
           id="rect4252-5-4"
           width="86.873116"
           height="72.73098"
           x="15.152288"
           y="-1.2269001"
           style="stroke-linecap:butt;stroke-linejoin:round" /></flowRegion><flowPara
         id="flowPara4254-2-8"
         style="font-size:22.5px;stroke-linecap:butt;stroke-linejoin:round">c</flowPara></flowRoot>    <rect
       style="fill:none;fill-opacity:0.30196078;stroke:#000000;stroke-width:0.147;stroke-linecap:butt;stroke-linejoin:round;stroke-miterlimit:4;stroke-dasharray:none;stroke-dashoffset:0;stroke-opacity:1"
       id="rect5346"
       width="13.340606"
       height="13.340607"
       x="40.369751"
       y="94.876534" />
    <rect
       style="fill:none;fill-opacity:0.30196078;stroke:#000000;stroke-width:0.147;stroke-linecap:butt;stroke-linejoin:round;stroke-miterlimit:4;stroke-dasharray:none;stroke-dashoffset:0;stroke-opacity:1"
       id="rect5346-0"
       width="13.340606"
       height="13.340607"
       x="192.3297"
       y="94.876534" />
    <g
       id="g5540"
       style="stroke-linecap:butt;stroke-linejoin:round"
       transform="translate(-16,0.0291112)">
      <g
         transform="matrix(0,-0.33842902,0.33842902,0,253.96634,152.53188)"
         style="stroke-linecap:butt;stroke-linejoin:round"
         id="patch_2">
        <path
           inkscape:connector-curvature="0"
           clip-path="url(#paa4624950e)"
           d="m 48.435623,376.94309 204.604977,0 0,-325.27589 -204.604977,0 z"
           style="fill:none;stroke:#000000;stroke-linecap:butt;stroke-linejoin:miter"
           id="path4334" />
      </g>
      <g
         transform="matrix(0,-0.33842902,0.33842902,0,253.96634,152.53188)"
         style="stroke-linecap:butt;stroke-linejoin:round"
         id="line2d_1">
        <defs
           id="defs4337">
          <path
             inkscape:connector-curvature="0"
             d="M 0,7.5 C 1.989023,7.5 3.896849,6.709753 5.303301,5.303301 6.709753,3.896849 7.5,1.989023 7.5,0 7.5,-1.989023 6.709753,-3.896849 5.303301,-5.303301 3.896849,-6.709753 1.989023,-7.5 0,-7.5 c -1.989023,0 -3.896849,0.790247 -5.303301,2.196699 C -6.709753,-3.896849 -7.5,-1.989023 -7.5,0 c 0,1.989023 0.790247,3.896849 2.196699,5.303301 C -3.896849,6.709753 -1.989023,7.5 0,7.5 Z"
             id="m3fd8ff0168"
             style="stroke:#000000;stroke-linecap:butt;stroke-linejoin:round" />
        </defs>
        <g
           style="stroke-linecap:butt;stroke-linejoin:round"
           clip-path="url(#paa4624950e)"
           id="g4340">
          <use
             height="100%"
             width="100%"
             style="fill:#ffffff;stroke:#000000;stroke-linecap:butt;stroke-linejoin:round"
             x="105.8882"
             xlink:href="#m3fd8ff0168"
             y="272.99243"
             id="use4342" />
          <use
             height="100%"
             width="100%"
             style="fill:#ffffff;stroke:#000000;stroke-linecap:butt;stroke-linejoin:round"
             x="149.79668"
             xlink:href="#m3fd8ff0168"
             y="138.33446"
             id="use4344" />
          <use
             height="100%"
             width="100%"
             style="fill:#ffffff;stroke:#000000;stroke-linecap:butt;stroke-linejoin:round"
             x="193.69763"
             xlink:href="#m3fd8ff0168"
             y="272.99243"
             id="use4346" />
          <use
             height="100%"
             width="100%"
             style="fill:#ffffff;stroke:#000000;stroke-linecap:butt;stroke-linejoin:round"
             x="78.806282"
             xlink:href="#m3fd8ff0168"
             y="189.77058"
             id="use4348" />
          <use
             height="100%"
             width="100%"
             style="fill:#ffffff;stroke:#000000;stroke-linecap:butt;stroke-linejoin:round"
             x="220.83101"
             xlink:href="#m3fd8ff0168"
             y="189.77058"
             id="use4350" />
        </g>
      </g>
      <g
         transform="matrix(0,-0.33842902,0.33842902,0,253.96634,152.53188)"
         style="stroke-linecap:butt;stroke-linejoin:round"
         id="line2d_4">
        <defs
           id="defs4369">
          <path
             inkscape:connector-curvature="0"
             d="M 0,7.5 C 1.989023,7.5 3.896849,6.709753 5.303301,5.303301 6.709753,3.896849 7.5,1.989023 7.5,0 7.5,-1.989023 6.709753,-3.896849 5.303301,-5.303301 3.896849,-6.709753 1.989023,-7.5 0,-7.5 c -1.989023,0 -3.896849,0.790247 -5.303301,2.196699 C -6.709753,-3.896849 -7.5,-1.989023 -7.5,0 c 0,1.989023 0.790247,3.896849 2.196699,5.303301 C -3.896849,6.709753 -1.989023,7.5 0,7.5 Z"
             id="mab2a8bd93c"
             style="stroke:#000000;stroke-linecap:butt;stroke-linejoin:round" />
        </defs>
        <g
           style="stroke-linecap:butt;stroke-linejoin:round"
           clip-path="url(#paa4624950e)"
           id="g4372">
          <use
             height="100%"
             width="100%"
             style="stroke:#000000;stroke-linecap:butt;stroke-linejoin:round"
             x="78.806282"
             xlink:href="#mab2a8bd93c"
             y="189.77058"
             id="use4374" />
        </g>
      </g>
      <g
         transform="matrix(0,-0.33842902,0.33842902,0,253.96634,152.53188)"
         style="stroke-linecap:butt;stroke-linejoin:round"
         id="line2d_5">
        <defs
           id="defs4377">
          <path
             inkscape:connector-curvature="0"
             d="M 0,7.5 C 1.989023,7.5 3.896849,6.709753 5.303301,5.303301 6.709753,3.896849 7.5,1.989023 7.5,0 7.5,-1.989023 6.709753,-3.896849 5.303301,-5.303301 3.896849,-6.709753 1.989023,-7.5 0,-7.5 c -1.989023,0 -3.896849,0.790247 -5.303301,2.196699 C -6.709753,-3.896849 -7.5,-1.989023 -7.5,0 c 0,1.989023 0.790247,3.896849 2.196699,5.303301 C -3.896849,6.709753 -1.989023,7.5 0,7.5 Z"
             id="mf2f7604ef5"
             style="stroke:#000000;stroke-linecap:butt;stroke-linejoin:round" />
        </defs>
        <g
           style="stroke-linecap:butt;stroke-linejoin:round"
           clip-path="url(#paa4624950e)"
           id="g4380">
          <use
             height="100%"
             width="100%"
             style="fill:#cccccc;stroke:#000000;stroke-linecap:butt;stroke-linejoin:round"
             x="220.83101"
             xlink:href="#mf2f7604ef5"
             y="189.77058"
             id="use4382" />
        </g>
      </g>
      <text
         sodipodi:linespacing="125%"
         id="text4429"
         y="118.43362"
         x="350"
         style="font-style:normal;font-weight:normal;font-size:40px;line-height:125%;font-family:sans-serif;letter-spacing:0px;word-spacing:0px;fill:#000000;fill-opacity:1;stroke:none;stroke-width:1px;stroke-linecap:butt;stroke-linejoin:miter;stroke-opacity:1"
         xml:space="preserve"><tspan
           y="118.43362"
           x="350"
           style="font-size:7.5px;stroke-linecap:butt;stroke-linejoin:round"
           id="tspan4431"
           sodipodi:role="line">1</tspan></text>
      <text
         inkscape:transform-center-y="1.4285714"
         inkscape:transform-center-x="-19.642857"
         sodipodi:linespacing="125%"
         id="text4429-8"
         y="82.776367"
         x="322.14899"
         style="font-style:normal;font-weight:normal;font-size:40px;line-height:125%;font-family:sans-serif;letter-spacing:0px;word-spacing:0px;fill:#000000;fill-opacity:1;stroke:none;stroke-width:1px;stroke-linecap:butt;stroke-linejoin:miter;stroke-opacity:1"
         xml:space="preserve"><tspan
           y="82.776367"
           x="322.14899"
           style="font-size:7.5px;stroke-linecap:butt;stroke-linejoin:round"
           id="tspan4431-7"
           sodipodi:role="line">2</tspan></text>
      <text
         inkscape:transform-center-y="1.4285714"
         inkscape:transform-center-x="-19.642857"
         sodipodi:linespacing="125%"
         id="text4429-8-8"
         y="129.84567"
         x="321.7742"
         style="font-style:normal;font-weight:normal;font-size:40px;line-height:125%;font-family:sans-serif;letter-spacing:0px;word-spacing:0px;fill:#000000;fill-opacity:1;stroke:none;stroke-width:1px;stroke-linecap:butt;stroke-linejoin:miter;stroke-opacity:1"
         xml:space="preserve"><tspan
           y="129.84567"
           x="321.7742"
           style="font-size:7.5px;stroke-linecap:butt;stroke-linejoin:round"
           id="tspan4431-7-7"
           sodipodi:role="line">3</tspan></text>
      <text
         inkscape:transform-center-y="1.4285714"
         inkscape:transform-center-x="-19.642857"
         sodipodi:linespacing="125%"
         id="text4429-8-8-5"
         y="92.160728"
         x="350.59097"
         style="font-style:normal;font-weight:normal;font-size:40px;line-height:125%;font-family:sans-serif;letter-spacing:0px;word-spacing:0px;fill:#000000;fill-opacity:1;stroke:none;stroke-width:1px;stroke-linecap:butt;stroke-linejoin:miter;stroke-opacity:1"
         xml:space="preserve"><tspan
           y="92.160728"
           x="350.59097"
           style="font-size:7.5px;stroke-linecap:butt;stroke-linejoin:round"
           id="tspan4431-7-7-6"
           sodipodi:role="line">4</tspan></text>
      <text
         inkscape:transform-center-y="1.4285714"
         inkscape:transform-center-x="-19.642857"
         sodipodi:linespacing="125%"
         id="text4429-8-8-5-9"
         y="105.54525"
         x="304.44058"
         style="font-style:normal;font-weight:normal;font-size:40px;line-height:125%;font-family:sans-serif;letter-spacing:0px;word-spacing:0px;fill:#000000;fill-opacity:1;stroke:none;stroke-width:1px;stroke-linecap:butt;stroke-linejoin:miter;stroke-opacity:1"
         xml:space="preserve"><tspan
           y="105.54525"
           x="304.44058"
           style="font-size:7.5px;stroke-linecap:butt;stroke-linejoin:round"
           id="tspan4431-7-7-6-3"
           sodipodi:role="line">5</tspan></text>
    </g>
  </g>
</svg>
