<?xml version="1.0" encoding="utf-8" standalone="no"?>
<!DOCTYPE svg PUBLIC "-//W3C//DTD SVG 1.1//EN"
  "http://www.w3.org/Graphics/SVG/1.1/DTD/svg11.dtd">
<!-- Created with matplotlib (http://matplotlib.org/) -->
<svg height="344pt" version="1.1" viewBox="0 0 460 344" width="460pt" xmlns="http://www.w3.org/2000/svg" xmlns:xlink="http://www.w3.org/1999/xlink">
 <defs>
  <style type="text/css">
*{stroke-linecap:butt;stroke-linejoin:round;}
  </style>
 </defs>
 <g id="figure_1">
  <g id="patch_1">
   <path d="M 0 344.16 
L 460.8 344.16 
L 460.8 0 
L 0 0 
z
" style="fill:#ffffff;"/>
  </g>
  <g id="axes_1">
   <g id="line2d_1">
    <path clip-path="url(#pb921e2cea3)" d="M 275.155903 281.828245 
L 275.643832 284.612921 
L 276.253737 286.744551 
L 277.06622 288.826915 
L 278.003284 290.65472 
L 279.040591 292.231707 
L 280.131335 293.538513 
L 281.253985 294.548245 
L 282.372125 295.269151 
L 283.566886 295.777388 
L 284.687296 296.030716 
L 285.995243 296.10364 
L 287.45723 295.913008 
L 288.718299 295.489418 
L 289.561006 294.960511 
L 290.254302 294.244283 
L 291.104999 292.979827 
L 292.272842 290.891799 
L 293.254856 288.698764 
L 294.111102 286.261588 
L 294.862665 283.425149 
L 295.506242 280.025719 
L 296.065603 275.73241 
L 296.889454 267.268066 
L 297.091588 261.209601 
L 297.117185 260.884318 
L 298.467004 259.904799 
L 299.43484 258.970158 
L 300.276931 257.908645 
L 300.957988 256.718079 
L 301.6422 254.955899 
L 302.100763 253.112771 
L 302.393628 250.881587 
L 302.513044 250.19416 
L 303.11957 249.165915 
L 304.031668 248.174152 
L 305.116873 247.397879 
L 306.607208 246.680344 
L 308.306983 246.12443 
L 310.235776 245.721212 
L 312.842862 245.432271 
L 315.476057 245.359617 
L 316.629941 245.260283 
L 317.554027 244.914488 
L 318.247562 244.456507 
L 318.943586 243.726765 
L 319.384398 242.998811 
L 319.678526 242.191976 
L 319.82033 241.166149 
L 319.758889 240.303891 
L 319.535409 239.472313 
L 319.066148 238.561772 
L 318.52693 237.912446 
L 317.87612 237.389532 
L 317.139268 237.014983 
L 316.200878 236.773637 
L 304.919974 234.767652 
L 305.269593 227.495752 
L 305.423734 219.349642 
L 305.363527 210.335737 
L 305.222116 209.484517 
L 304.84301 208.528998 
L 304.370328 207.823104 
L 303.639496 207.131897 
L 302.926962 206.708399 
L 301.986835 206.416162 
L 301.00749 206.369292 
L 300.023908 206.548855 
L 294.719524 207.665946 
L 291.959812 208.068308 
L 290.656605 208.219985 
L 289.742753 208.594985 
L 289.06329 209.075371 
L 288.38861 209.827252 
L 287.969922 210.57022 
L 287.642456 211.551347 
L 286.734062 214.337185 
L 285.574926 217.205518 
L 284.568703 219.18443 
L 283.458252 220.900263 
L 282.173277 222.473004 
L 281.184508 223.382032 
L 280.631183 223.711791 
L 278.504863 223.842885 
L 276.727588 224.157272 
L 274.988453 224.656173 
L 273.303684 225.333546 
L 271.546436 226.264435 
L 269.889118 227.383876 
L 268.226261 228.790187 
L 266.826157 230.249991 
L 265.472026 231.988975 
L 264.383451 233.720797 
L 263.395992 235.71638 
L 262.67125 237.649177 
L 262.106933 239.821158 
L 261.94717 240.451251 
L 255.235064 240.109973 
L 247.370247 239.936488 
L 241.664346 239.866477 
L 241.573987 211.439821 
L 241.260372 210.456724 
L 240.617647 209.45636 
L 240.01409 208.873848 
L 239.161549 208.36188 
L 238.380321 208.109438 
L 237.400498 208.025112 
L 217.575947 208.054811 
L 217.876212 205.83342 
L 218.664058 201.227827 
L 219.575885 197.181046 
L 220.580698 193.699461 
L 221.755924 190.46352 
L 223.025386 187.647736 
L 224.254254 185.395629 
L 225.757062 183.109803 
L 226.829475 181.762709 
L 227.403684 181.434082 
L 228.787825 180.954558 
L 233.982407 179.43959 
L 235.609708 178.323217 
L 237.540027 176.714924 
L 239.195528 175.035426 
L 240.697697 173.202302 
L 242.131705 171.091035 
L 243.306443 169.006941 
L 244.395539 166.676082 
L 245.427716 163.939499 
L 246.303695 160.960544 
L 247.008633 157.753019 
L 247.548343 154.158196 
L 247.677308 152.952188 
L 250.367065 153.709782 
L 252.837675 154.636387 
L 254.627568 155.529749 
L 256.30687 156.610562 
L 257.595243 157.680186 
L 258.732625 158.925896 
L 259.58729 160.195922 
L 260.011921 161.11004 
L 260.238091 163.350132 
L 260.6647 165.379533 
L 261.356678 167.510173 
L 262.194815 169.391079 
L 263.311393 171.308992 
L 264.521341 172.947989 
L 265.893027 174.436667 
L 267.415598 175.751596 
L 269.071949 176.870647 
L 270.692756 177.704538 
L 272.392002 178.338061 
L 274.148548 178.75933 
L 275.940133 178.961965 
L 278.732398 178.973528 
L 293.969081 178.88346 
L 294.749342 178.625312 
L 295.465183 178.208573 
L 296.198798 177.52104 
L 296.677887 176.820562 
L 297.061983 175.867094 
L 297.209845 175.018003 
L 297.228241 172.76595 
L 297.249852 155.79407 
L 311.216599 155.670426 
L 312.143803 155.332944 
L 312.841143 154.881477 
L 313.438606 154.291818 
L 313.912664 153.587354 
L 314.243796 152.796823 
L 314.43633 151.779909 
L 314.391507 150.750739 
L 313.829483 147.189892 
L 313.681237 144.07415 
L 313.525593 140.458733 
L 313.162613 139.495343 
L 312.702342 138.781123 
L 311.98397 138.075576 
L 311.279313 137.637554 
L 310.344462 137.326901 
L 309.366639 137.247571 
L 286.32992 137.17551 
L 286.490162 130.070104 
L 286.813153 125.402557 
L 287.053837 121.941264 
L 286.853719 121.103547 
L 286.410206 120.178462 
L 285.889663 119.512871 
L 285.253582 118.968857 
L 284.373603 118.5132 
L 283.578367 118.310665 
L 282.436981 118.282378 
L 280.968504 118.157987 
L 279.372469 117.770835 
L 277.832962 117.178643 
L 276.22357 116.321163 
L 274.858135 115.364749 
L 273.501492 114.111678 
L 272.452617 112.781914 
L 271.786808 111.589089 
L 271.520813 110.778598 
L 271.33253 108.709324 
L 270.957025 106.844997 
L 270.335192 104.872649 
L 269.427845 102.83544 
L 268.297824 100.926242 
L 267.078893 99.294071 
L 265.586187 97.688304 
L 264.07023 96.364201 
L 262.302699 95.108041 
L 260.421442 94.052208 
L 258.601212 93.267963 
L 256.554721 92.643379 
L 254.618732 92.284658 
L 252.493217 92.147301 
L 249.257126 92.262616 
L 246.486357 92.568026 
L 243.744313 93.0856 
L 241.045889 93.817868 
L 238.562205 94.705898 
L 236.001101 95.864148 
L 233.529419 97.228617 
L 232.186576 98.219676 
L 230.971364 99.381838 
L 229.805842 100.834387 
L 228.833424 102.438316 
L 228.064483 104.162054 
L 227.50635 105.972681 
L 227.352293 106.449872 
L 226.198793 107.679372 
L 224.891279 108.721952 
L 223.327707 109.66874 
L 221.522461 110.492048 
L 219.494274 111.178572 
L 217.097493 111.75511 
L 214.504689 112.166415 
L 211.401668 112.438096 
L 209.091341 112.66901 
L 208.333315 112.993098 
L 207.527553 113.583265 
L 206.974886 114.220296 
L 206.553718 114.961344 
L 206.281074 115.776628 
L 206.168046 116.632705 
L 206.227495 117.636202 
L 206.607125 121.777342 
L 206.846565 126.971628 
L 206.9295 132.691001 
L 206.303058 132.721779 
L 185.646281 132.802603 
L 184.863338 133.049988 
L 184.142874 133.457545 
L 183.40093 134.135694 
L 182.914859 134.83026 
L 182.568855 135.61378 
L 182.363458 136.620013 
L 182.275047 138.863829 
L 181.982134 151.341835 
L 181.951324 152.901507 
L 176.647565 151.787243 
L 173.826007 150.948565 
L 170.573012 149.760651 
L 167.551262 148.419096 
L 164.920168 147.008975 
L 162.68015 145.568851 
L 160.694772 144.035659 
L 159.096513 142.547 
L 157.645463 140.897985 
L 156.387117 139.081238 
L 155.57624 137.57529 
L 154.869891 135.822241 
L 154.729594 135.152404 
L 154.584888 132.730998 
L 154.233177 130.333243 
L 153.677902 127.979333 
L 152.925869 125.687077 
L 151.986997 123.47365 
L 150.78675 121.205069 
L 149.400877 119.058468 
L 147.734764 116.917544 
L 146.014265 115.06132 
L 144.025937 113.253816 
L 141.896916 111.636049 
L 139.788295 110.301077 
L 137.432832 109.083789 
L 135.140607 108.146416 
L 132.780843 107.419754 
L 130.369563 106.915338 
L 128.089159 106.655763 
L 125.796043 106.6098 
L 124.488023 106.731219 
L 123.708828 106.992709 
L 122.865028 107.521374 
L 122.164767 108.246811 
L 121.718978 108.971075 
L 121.380162 109.944097 
L 121.271889 110.800304 
L 121.17111 114.435253 
L 120.813111 116.655816 
L 120.245201 118.827003 
L 119.419487 121.090431 
L 118.312117 123.41107 
L 117.089848 125.463911 
L 115.698665 127.392476 
L 114.148785 129.181271 
L 112.575669 130.700702 
L 110.745508 132.162624 
L 108.927972 133.336876 
L 107.006124 134.307062 
L 105.309818 134.95015 
L 103.562016 135.411429 
L 102.911801 135.454468 
L 100.456597 135.566977 
L 98.021015 135.915524 
L 95.783704 136.451083 
L 93.596696 137.183483 
L 91.474372 138.10368 
L 89.428793 139.200946 
L 87.332882 140.559556 
L 85.092692 142.310418 
L 83.007511 144.263885 
L 81.088274 146.399032 
L 79.344306 148.696653 
L 77.785197 151.137701 
L 76.493926 153.551334 
L 75.31953 156.222993 
L 74.358241 158.988115 
L 73.657207 161.660548 
L 73.141505 164.556044 
L 72.872235 167.487934 
L 72.833362 170.786195 
L 72.927401 176.49869 
L 73.248247 177.479646 
L 73.894891 178.476364 
L 74.502018 179.054922 
L 75.356651 179.562237 
L 76.139321 179.809278 
L 77.116353 179.890918 
L 97.435747 179.890918 
L 97.464183 180.553884 
L 97.575075 202.576767 
L 97.662716 210.878645 
L 73.24588 211.022115 
L 72.18082 211.461824 
L 71.510175 211.955561 
L 70.849064 212.721039 
L 70.441957 213.470487 
L 70.155985 214.461653 
L 70.086967 215.496762 
L 70.193318 237.349343 
L 70.475933 239.407558 
L 71.006892 241.588595 
L 71.776991 243.688549 
L 72.695066 245.523528 
L 73.714888 247.081812 
L 74.924601 248.493553 
L 76.303267 249.720366 
L 77.833516 250.725371 
L 79.337245 251.410336 
L 80.758604 251.822167 
L 82.056726 252.010826 
L 82.056726 252.010826 
" style="fill:none;stroke:#000000;stroke-linecap:square;stroke-width:1.5;"/>
   </g>
   <g id="line2d_2">
    <path clip-path="url(#pb921e2cea3)" d="M 82.056726 252.010826 
" style="fill:none;stroke:#1f77b4;stroke-linecap:square;stroke-width:1.5;"/>
    <defs>
     <path d="M 0 7.5 
C 1.989023 7.5 3.896849 6.709753 5.303301 5.303301 
C 6.709753 3.896849 7.5 1.989023 7.5 0 
C 7.5 -1.989023 6.709753 -3.896849 5.303301 -5.303301 
C 3.896849 -6.709753 1.989023 -7.5 0 -7.5 
C -1.989023 -7.5 -3.896849 -6.709753 -5.303301 -5.303301 
C -6.709753 -3.896849 -7.5 -1.989023 -7.5 0 
C -7.5 1.989023 -6.709753 3.896849 -5.303301 5.303301 
C -3.896849 6.709753 -1.989023 7.5 0 7.5 
z
" id="mc192a330db" style="stroke:#000000;"/>
    </defs>
    <g clip-path="url(#pb921e2cea3)">
     <use style="fill:#f2f2f2;stroke:#000000;" x="82.056726" xlink:href="#mc192a330db" y="252.010826"/>
    </g>
   </g>
   <g id="line2d_3">
    <path clip-path="url(#pb921e2cea3)" d="M 275.155903 281.828245 
" style="fill:none;stroke:#ff7f0e;stroke-linecap:square;stroke-width:1.5;"/>
    <defs>
     <path d="M 0 7.5 
C 1.989023 7.5 3.896849 6.709753 5.303301 5.303301 
C 6.709753 3.896849 7.5 1.989023 7.5 0 
C 7.5 -1.989023 6.709753 -3.896849 5.303301 -5.303301 
C 3.896849 -6.709753 1.989023 -7.5 0 -7.5 
C -1.989023 -7.5 -3.896849 -6.709753 -5.303301 -5.303301 
C -6.709753 -3.896849 -7.5 -1.989023 -7.5 0 
C -7.5 1.989023 -6.709753 3.896849 -5.303301 5.303301 
C -3.896849 6.709753 -1.989023 7.5 0 7.5 
z
" id="m3ae813334c" style="stroke:#000000;"/>
    </defs>
    <g clip-path="url(#pb921e2cea3)">
     <use style="stroke:#000000;" x="275.155903" xlink:href="#m3ae813334c" y="281.828245"/>
    </g>
   </g>
  </g>
 </g>
 <defs>
  <clipPath id="pb921e2cea3">
   <rect height="265.0032" width="357.12" x="57.6" y="41.2992"/>
  </clipPath>
 </defs>
</svg>
