<?xml version="1.0" encoding="utf-8" standalone="no"?>
<!DOCTYPE svg PUBLIC "-//W3C//DTD SVG 1.1//EN"
  "http://www.w3.org/Graphics/SVG/1.1/DTD/svg11.dtd">
<!-- Created with matplotlib (http://matplotlib.org/) -->
<svg height="344pt" version="1.1" viewBox="0 0 460 344" width="460pt" xmlns="http://www.w3.org/2000/svg" xmlns:xlink="http://www.w3.org/1999/xlink">
 <defs>
  <style type="text/css">
*{stroke-linecap:butt;stroke-linejoin:round;}
  </style>
 </defs>
 <g id="figure_1">
  <g id="patch_1">
   <path d="M 0 344.16 
L 460.8 344.16 
L 460.8 0 
L 0 0 
z
" style="fill:#ffffff;"/>
  </g>
  <g id="axes_1">
   <g id="line2d_1">
    <path clip-path="url(#p23af468ed5)" d="M 275.155903 105.801454 
L 275.643832 103.008111 
L 276.253737 100.869846 
L 277.06622 98.781001 
L 278.003284 96.947506 
L 279.040591 95.36561 
L 280.131335 94.054737 
L 281.253985 93.041862 
L 282.372125 92.318712 
L 283.566886 91.808893 
L 284.687296 91.554777 
L 285.995243 91.481625 
L 287.45723 91.672851 
L 288.718299 92.097759 
L 289.561006 92.628313 
L 290.254302 93.346771 
L 291.104999 94.615162 
L 292.272842 96.70969 
L 293.254856 98.909551 
L 294.111102 101.354312 
L 294.862665 104.19958 
L 295.506242 107.60959 
L 296.065603 111.916263 
L 296.889454 120.406953 
L 297.091588 126.484276 
L 297.117186 126.81057 
L 298.467006 127.793138 
L 299.434842 128.730689 
L 300.276932 129.795505 
L 300.957989 130.989778 
L 301.642201 132.757443 
L 302.100763 134.606308 
L 302.393628 136.844436 
L 302.513044 137.534004 
L 303.119571 138.565448 
L 304.031669 139.560298 
L 305.116875 140.338987 
L 306.60721 141.058755 
L 308.306985 141.616399 
L 310.235778 142.020873 
L 312.842864 142.310712 
L 315.476059 142.383592 
L 316.629943 142.483236 
L 317.554029 142.830108 
L 318.247564 143.289514 
L 318.943587 144.021529 
L 319.384399 144.751748 
L 319.678526 145.561094 
L 319.82033 146.590115 
L 319.758889 147.455057 
L 319.535409 148.289223 
L 319.066147 149.202598 
L 318.526928 149.853944 
L 317.876119 150.378486 
L 317.139266 150.7542 
L 316.200876 150.996297 
L 304.919974 153.008528 
L 305.269593 160.303062 
L 305.423734 168.474528 
L 305.363527 177.516489 
L 305.222116 178.370359 
L 304.843009 179.328852 
L 304.370327 180.036942 
L 303.639494 180.7303 
L 302.92696 181.155117 
L 301.986834 181.448263 
L 301.007488 181.495279 
L 300.023906 181.315156 
L 294.719522 180.194588 
L 291.95981 179.790974 
L 290.656603 179.638824 
L 289.742751 179.262657 
L 289.063288 178.780775 
L 288.388609 178.026553 
L 287.969921 177.281273 
L 287.642455 176.297092 
L 286.734061 173.502583 
L 285.574925 170.625322 
L 284.568702 168.64025 
L 283.458251 166.919077 
L 282.173276 165.34144 
L 281.184507 164.429584 
L 280.631181 164.098799 
L 278.504861 163.967297 
L 276.727586 163.651931 
L 274.988451 163.151477 
L 273.303683 162.471995 
L 271.546434 161.538208 
L 269.889117 160.415283 
L 268.226259 159.004595 
L 266.826156 157.540247 
L 265.472025 155.79585 
L 264.38345 154.058637 
L 263.395991 152.056843 
L 262.671249 150.118031 
L 262.106933 147.939288 
L 261.947168 147.307236 
L 255.235062 147.649577 
L 247.370246 147.823601 
L 241.664346 147.893832 
L 241.573987 176.408969 
L 241.260372 177.395126 
L 240.617646 178.398603 
L 240.014088 178.982928 
L 239.161547 179.496489 
L 238.380319 179.749716 
L 237.400496 179.834305 
L 217.575945 179.804513 
L 217.876213 182.032821 
L 218.664059 186.652748 
L 219.575885 190.712125 
L 220.580699 194.204547 
L 221.755924 197.450561 
L 223.025387 200.275109 
L 224.254255 202.534225 
L 225.757063 204.827166 
L 226.829476 206.178453 
L 227.403686 206.508102 
L 228.787827 206.989119 
L 233.982408 208.508802 
L 235.609709 209.628651 
L 237.540029 211.24195 
L 239.195529 212.926675 
L 240.697698 214.765505 
L 242.131706 216.883344 
L 243.306444 218.973925 
L 244.39554 221.312039 
L 245.427717 224.05714 
L 246.303696 227.045368 
L 247.008633 230.262876 
L 247.548343 233.868888 
L 247.677308 235.07865 
L 250.367067 234.318696 
L 252.837676 233.389206 
L 254.62757 232.493064 
L 256.306872 231.408886 
L 257.595245 230.335932 
L 258.732627 229.086345 
L 259.587291 227.812366 
L 260.011921 226.895402 
L 260.238091 224.648338 
L 260.6647 222.61262 
L 261.356679 220.475348 
L 262.194816 218.588588 
L 263.311394 216.664705 
L 264.521342 215.020607 
L 265.893028 213.527295 
L 267.415599 212.208273 
L 268.929073 211.17082 
L 270.692758 210.249253 
L 272.392004 209.613759 
L 274.14855 209.191178 
L 275.940135 208.987913 
L 278.7324 208.976314 
L 293.969083 209.066663 
L 294.749344 209.325615 
L 295.465184 209.743652 
L 296.198799 210.433325 
L 296.677888 211.135983 
L 297.061984 212.092419 
L 297.209845 212.944153 
L 297.228241 215.203216 
L 297.249854 232.227921 
L 311.2166 232.35195 
L 312.143804 232.690482 
L 312.841145 233.143355 
L 313.438607 233.73485 
L 313.912665 234.441507 
L 314.243797 235.234498 
L 314.43633 236.254578 
L 314.391507 237.286951 
L 313.829483 240.858882 
L 313.681237 243.984321 
L 313.525593 247.610992 
L 313.162612 248.577381 
L 312.70234 249.293824 
L 311.983968 250.001566 
L 311.279311 250.440951 
L 310.344461 250.752571 
L 309.366638 250.832148 
L 286.32992 250.904435 
L 286.490162 258.031957 
L 286.813154 262.714032 
L 287.053836 266.186099 
L 286.853718 267.026423 
L 286.410205 267.954387 
L 285.889661 268.622049 
L 285.253581 269.167756 
L 284.373602 269.624832 
L 283.578365 269.827996 
L 282.436979 269.856371 
L 281.130718 269.956449 
L 279.687196 270.272969 
L 277.983312 270.894399 
L 276.223568 271.823692 
L 274.858134 272.783083 
L 273.501491 274.040054 
L 272.452616 275.373957 
L 271.786807 276.570496 
L 271.520813 277.383509 
L 271.332529 279.459224 
L 270.957024 281.329354 
L 270.335191 283.307841 
L 269.427844 285.351391 
L 268.297823 287.266531 
L 267.078892 288.903783 
L 265.586186 290.514547 
L 264.070229 291.842772 
L 262.302697 293.102842 
L 260.42144 294.16196 
L 258.60121 294.948647 
L 256.554719 295.575174 
L 254.61873 295.935012 
L 252.493215 296.072796 
L 249.257125 295.957122 
L 246.486356 295.650762 
L 243.744311 295.131576 
L 241.045888 294.397028 
L 238.562204 293.506235 
L 236.001099 292.344379 
L 233.529418 290.975663 
L 232.186575 289.981519 
L 230.971363 288.81574 
L 229.805841 287.358669 
L 228.833423 285.749747 
L 228.064482 284.020645 
L 227.50635 282.204381 
L 227.352292 281.725705 
L 226.198791 280.492379 
L 224.891278 279.446553 
L 223.327706 278.49682 
L 221.522459 277.670949 
L 219.494272 276.982288 
L 217.097491 276.403956 
L 214.504688 275.991371 
L 211.401666 275.718844 
L 209.248246 275.53689 
L 208.333314 275.162114 
L 207.527552 274.570109 
L 206.974885 273.931096 
L 206.553717 273.187741 
L 206.281074 272.369918 
L 206.168046 271.511177 
L 206.227496 270.504556 
L 206.607125 266.350527 
L 206.846565 261.140074 
L 206.9295 255.402898 
L 206.303057 255.372026 
L 185.646279 255.29095 
L 184.863336 255.042795 
L 184.142872 254.633969 
L 183.400928 253.953709 
L 182.914858 253.256981 
L 182.568854 252.471022 
L 182.363458 251.461657 
L 182.275047 249.210857 
L 181.982134 236.694012 
L 181.951322 235.129488 
L 176.647563 236.247219 
L 173.826005 237.088508 
L 170.573011 238.28012 
L 167.55126 239.625851 
L 164.920166 241.04036 
L 162.680149 242.484968 
L 160.694771 244.022932 
L 159.096512 245.516224 
L 157.645462 247.170373 
L 156.387116 248.992775 
L 155.576239 250.503409 
L 154.86989 252.261915 
L 154.729594 252.933838 
L 154.584888 255.362781 
L 154.233176 257.767999 
L 153.677901 260.129236 
L 152.925868 262.428627 
L 151.986996 264.648943 
L 150.786749 266.924585 
L 149.400876 269.077867 
L 147.734762 271.225455 
L 146.014263 273.087457 
L 144.025936 274.900587 
L 141.896915 276.523388 
L 139.788293 277.862516 
L 137.43283 279.083592 
L 135.140606 280.023883 
L 132.780842 280.752807 
L 130.369561 281.258793 
L 128.089157 281.519175 
L 125.796041 281.565281 
L 124.488021 281.443483 
L 123.708826 281.18118 
L 122.865027 280.650869 
L 122.164765 279.923174 
L 121.718977 279.196655 
L 121.380162 278.220604 
L 121.271889 277.361732 
L 121.17111 273.715469 
L 120.81311 271.487994 
L 120.2452 269.310049 
L 119.419487 267.039576 
L 118.312116 264.711714 
L 117.089847 262.652483 
L 115.698663 260.717916 
L 114.148783 258.923553 
L 112.575667 257.399392 
L 110.745507 255.932921 
L 108.92797 254.755014 
L 107.006122 253.781808 
L 105.309816 253.136718 
L 103.562014 252.674004 
L 102.911799 252.630831 
L 100.456595 252.517972 
L 98.021013 252.16834 
L 95.783702 251.631114 
L 93.596694 250.896434 
L 91.474371 249.973373 
L 89.428792 248.872691 
L 87.33288 247.509853 
L 85.092691 245.75354 
L 83.00751 243.793993 
L 81.088273 241.6522 
L 79.344305 239.347427 
L 77.785196 236.898781 
L 76.493925 234.477635 
L 75.319529 231.79766 
L 74.35824 229.023932 
L 73.657207 226.343181 
L 73.141504 223.438672 
L 72.872235 220.497657 
L 72.833362 217.189129 
L 72.927401 211.458853 
L 73.248248 210.474844 
L 73.894892 209.475025 
L 74.50202 208.894665 
L 75.356653 208.385772 
L 76.139323 208.137963 
L 77.116355 208.056069 
L 97.435749 208.056069 
L 97.464183 207.391038 
L 97.575075 185.299606 
L 97.662714 176.971889 
L 73.245879 176.827973 
L 72.180818 176.386895 
L 71.510174 175.89162 
L 70.849063 175.12376 
L 70.441956 174.371978 
L 70.155984 173.377727 
L 70.086967 172.339396 
L 70.193318 150.418797 
L 70.475934 148.354176 
L 71.006893 146.16635 
L 71.776992 144.05986 
L 72.695067 142.21917 
L 73.714889 140.656036 
L 74.924602 139.2399 
L 76.303269 138.009269 
L 77.833518 137.001136 
L 79.337247 136.31404 
L 80.758606 135.900927 
L 82.056728 135.71168 
L 82.056728 135.71168 
" style="fill:none;stroke:#000000;stroke-linecap:square;stroke-width:1.5;"/>
   </g>
   <g id="line2d_2">
    <path clip-path="url(#p23af468ed5)" d="M 82.056728 135.71168 
" style="fill:none;stroke:#1f77b4;stroke-linecap:square;stroke-width:1.5;"/>
    <defs>
     <path d="M 0 7.5 
C 1.989023 7.5 3.896849 6.709753 5.303301 5.303301 
C 6.709753 3.896849 7.5 1.989023 7.5 0 
C 7.5 -1.989023 6.709753 -3.896849 5.303301 -5.303301 
C 3.896849 -6.709753 1.989023 -7.5 0 -7.5 
C -1.989023 -7.5 -3.896849 -6.709753 -5.303301 -5.303301 
C -6.709753 -3.896849 -7.5 -1.989023 -7.5 0 
C -7.5 1.989023 -6.709753 3.896849 -5.303301 5.303301 
C -3.896849 6.709753 -1.989023 7.5 0 7.5 
z
" id="m05177f50cb" style="stroke:#000000;"/>
    </defs>
    <g clip-path="url(#p23af468ed5)">
     <use style="fill:#f2f2f2;stroke:#000000;" x="82.056728" xlink:href="#m05177f50cb" y="135.71168"/>
    </g>
   </g>
   <g id="line2d_3">
    <path clip-path="url(#p23af468ed5)" d="M 275.155903 105.801454 
" style="fill:none;stroke:#ff7f0e;stroke-linecap:square;stroke-width:1.5;"/>
    <defs>
     <path d="M 0 7.5 
C 1.989023 7.5 3.896849 6.709753 5.303301 5.303301 
C 6.709753 3.896849 7.5 1.989023 7.5 0 
C 7.5 -1.989023 6.709753 -3.896849 5.303301 -5.303301 
C 3.896849 -6.709753 1.989023 -7.5 0 -7.5 
C -1.989023 -7.5 -3.896849 -6.709753 -5.303301 -5.303301 
C -6.709753 -3.896849 -7.5 -1.989023 -7.5 0 
C -7.5 1.989023 -6.709753 3.896849 -5.303301 5.303301 
C -3.896849 6.709753 -1.989023 7.5 0 7.5 
z
" id="m31422d3157" style="stroke:#000000;"/>
    </defs>
    <g clip-path="url(#p23af468ed5)">
     <use style="stroke:#000000;" x="275.155903" xlink:href="#m31422d3157" y="105.801454"/>
    </g>
   </g>
  </g>
 </g>
 <defs>
  <clipPath id="p23af468ed5">
   <rect height="265.0032" width="357.12" x="57.6" y="41.2992"/>
  </clipPath>
 </defs>
</svg>
