<?xml version="1.0" encoding="utf-8" standalone="no"?>
<!DOCTYPE svg PUBLIC "-//W3C//DTD SVG 1.1//EN"
  "http://www.w3.org/Graphics/SVG/1.1/DTD/svg11.dtd">
<!-- Created with matplotlib (http://matplotlib.org/) -->
<svg height="344pt" version="1.1" viewBox="0 0 460 344" width="460pt" xmlns="http://www.w3.org/2000/svg" xmlns:xlink="http://www.w3.org/1999/xlink">
 <defs>
  <style type="text/css">
*{stroke-linecap:butt;stroke-linejoin:round;}
  </style>
 </defs>
 <g id="figure_1">
  <g id="patch_1">
   <path d="M 0 344.16 
L 460.8 344.16 
L 460.8 0 
L 0 0 
z
" style="fill:#ffffff;"/>
  </g>
  <g id="axes_1">
   <g id="line2d_1">
    <path clip-path="url(#p1eb6a4f4db)" d="M 229.75745 193.396107 
L 248.830828 168.564739 
L 259.62035 154.945705 
L 267.619865 145.208567 
L 275.515602 135.999382 
L 280.711071 130.20333 
L 285.844461 124.715147 
L 290.909518 119.561571 
L 295.900071 114.767709 
L 300.810038 110.356916 
L 305.633439 106.350683 
L 310.364397 102.768526 
L 314.997148 99.627897 
L 319.526047 96.944098 
L 323.945577 94.730203 
L 328.250354 92.996998 
L 332.435132 91.752928 
L 334.480922 91.316307 
L 336.494813 91.004053 
L 338.47619 90.816549 
L 340.424451 90.754023 
L 342.339001 90.816549 
L 344.219258 91.004053 
L 346.064649 91.316307 
L 347.874611 91.752928 
L 349.648594 92.313386 
L 351.386057 92.996998 
L 353.08647 93.802931 
L 354.749317 94.730203 
L 356.374089 95.777684 
L 357.960293 96.944098 
L 359.507445 98.228023 
L 362.482721 101.142013 
L 365.296291 104.505454 
L 367.944729 108.301962 
L 370.424806 112.513041 
L 372.733502 117.118173 
L 374.868003 122.094924 
L 376.82571 127.419047 
L 378.604236 133.064603 
L 380.201416 139.004089 
L 381.615303 145.208567 
L 382.844175 151.64781 
L 383.886534 158.290447 
L 384.74111 165.104114 
L 385.406863 172.055618 
L 385.88298 179.11109 
L 386.168883 186.236157 
L 386.264223 193.396107 
L 386.168883 200.556057 
L 385.88298 207.681124 
L 385.406863 214.736596 
L 384.74111 221.6881 
L 383.886534 228.501767 
L 382.844175 235.144404 
L 381.615303 241.583647 
L 380.201416 247.788125 
L 378.604236 253.727611 
L 376.82571 259.373167 
L 374.868003 264.69729 
L 372.733502 269.674041 
L 370.424806 274.279173 
L 367.944729 278.490252 
L 365.296291 282.28676 
L 362.482721 285.650202 
L 359.507445 288.564191 
L 357.960293 289.848116 
L 356.374089 291.01453 
L 354.749317 292.062011 
L 353.08647 292.989283 
L 351.386057 293.795216 
L 349.648594 294.478828 
L 347.874611 295.039286 
L 346.064649 295.475907 
L 344.219258 295.788161 
L 342.339001 295.975665 
L 340.424451 296.038192 
L 338.47619 295.975665 
L 336.494813 295.788161 
L 334.480922 295.475907 
L 332.435132 295.039286 
L 328.250354 293.795216 
L 323.945577 292.062011 
L 319.526047 289.848116 
L 314.997148 287.164317 
L 310.364397 284.023688 
L 305.633439 280.441531 
L 300.810038 276.435298 
L 295.900071 272.024506 
L 290.909518 267.230644 
L 285.844461 262.077067 
L 280.711071 256.588884 
L 275.515602 250.792832 
L 267.619865 241.583647 
L 259.62035 231.846509 
L 251.538983 221.6881 
L 240.674811 207.681124 
L 205.274397 161.677959 
L 197.217862 151.64781 
L 189.250517 142.075065 
L 181.394198 133.064603 
L 176.228981 127.419047 
L 171.128981 122.094924 
L 166.100411 117.118173 
L 161.149397 112.513041 
L 156.281971 108.301962 
L 151.504064 104.505454 
L 146.821496 101.142013 
L 142.239973 98.228023 
L 137.765077 95.777684 
L 133.402259 93.802931 
L 129.156836 92.313386 
L 127.079769 91.752928 
L 125.033978 91.316307 
L 123.020088 91.004053 
L 121.03871 90.816549 
L 119.09045 90.754023 
L 117.175899 90.816549 
L 115.295643 91.004053 
L 113.450252 91.316307 
L 111.640289 91.752928 
L 109.866307 92.313386 
L 108.128844 92.996998 
L 106.42843 93.802931 
L 104.765584 94.730203 
L 103.140811 95.777684 
L 101.554607 96.944098 
L 100.007455 98.228023 
L 97.032179 101.142013 
L 94.218609 104.505454 
L 91.570172 108.301962 
L 89.090095 112.513041 
L 86.781399 117.118173 
L 84.646897 122.094924 
L 82.689191 127.419047 
L 80.910664 133.064603 
L 79.313484 139.004089 
L 77.899597 145.208567 
L 76.670726 151.64781 
L 75.628367 158.290447 
L 74.77379 165.104114 
L 74.108038 172.055618 
L 73.63192 179.11109 
L 73.346017 186.236157 
L 73.250677 193.396107 
L 73.346017 200.556057 
L 73.63192 207.681124 
L 74.108038 214.736596 
L 74.77379 221.6881 
L 75.628367 228.501767 
L 76.670726 235.144404 
L 77.899597 241.583647 
L 79.313484 247.788125 
L 80.910664 253.727611 
L 82.689191 259.373167 
L 84.646897 264.69729 
L 86.781399 269.674041 
L 89.090095 274.279173 
L 91.570172 278.490252 
L 94.218609 282.28676 
L 97.032179 285.650202 
L 100.007455 288.564191 
L 101.554607 289.848116 
L 103.140811 291.01453 
L 104.765584 292.062011 
L 106.42843 292.989283 
L 108.128844 293.795216 
L 109.866307 294.478828 
L 111.640289 295.039286 
L 113.450252 295.475907 
L 115.295643 295.788161 
L 117.175899 295.975665 
L 119.09045 296.038192 
L 121.03871 295.975665 
L 123.020088 295.788161 
L 125.033978 295.475907 
L 127.079769 295.039286 
L 131.264547 293.795216 
L 135.569323 292.062011 
L 139.988853 289.848116 
L 144.517752 287.164317 
L 149.150503 284.023688 
L 153.881461 280.441531 
L 158.704862 276.435298 
L 163.61483 272.024506 
L 168.605382 267.230644 
L 173.670439 262.077067 
L 178.803829 256.588884 
L 183.999298 250.792832 
L 191.895035 241.583647 
L 199.89455 231.846509 
L 207.975917 221.6881 
L 218.84009 207.681124 
L 254.240504 161.677959 
L 262.297038 151.64781 
L 270.264384 142.075065 
L 278.120703 133.064603 
L 283.285919 127.419047 
L 288.385919 122.094924 
L 293.41449 117.118173 
L 298.365504 112.513041 
L 303.232929 108.301962 
L 308.010837 104.505454 
L 312.693404 101.142013 
L 317.274927 98.228023 
L 321.749823 95.777684 
L 326.112641 93.802931 
L 330.358065 92.313386 
L 332.435132 91.752928 
L 334.480922 91.316307 
L 336.494813 91.004053 
L 338.47619 90.816549 
L 340.424451 90.754023 
L 342.339001 90.816549 
L 344.219258 91.004053 
L 346.064649 91.316307 
L 347.874611 91.752928 
L 349.648594 92.313386 
L 351.386057 92.996998 
L 353.08647 93.802931 
L 354.749317 94.730203 
L 356.374089 95.777684 
L 357.960293 96.944098 
L 359.507445 98.228023 
L 362.482721 101.142013 
L 365.296291 104.505454 
L 367.944729 108.301962 
L 370.424806 112.513041 
L 372.733502 117.118173 
L 374.868003 122.094924 
L 376.82571 127.419047 
L 378.604236 133.064603 
L 380.201416 139.004089 
L 381.615303 145.208567 
L 382.844175 151.64781 
L 383.886534 158.290447 
L 384.74111 165.104114 
L 385.406863 172.055618 
L 385.88298 179.11109 
L 386.168883 186.236157 
L 386.264223 193.396107 
L 386.168883 200.556057 
L 385.88298 207.681124 
L 385.406863 214.736596 
L 384.74111 221.6881 
L 383.886534 228.501767 
L 382.844175 235.144404 
L 381.615303 241.583647 
L 380.201416 247.788125 
L 378.604236 253.727611 
L 376.82571 259.373167 
L 374.868003 264.69729 
L 372.733502 269.674041 
L 370.424806 274.279173 
L 367.944729 278.490252 
L 365.296291 282.28676 
L 362.482721 285.650202 
L 359.507445 288.564191 
L 357.960293 289.848116 
L 356.374089 291.01453 
L 354.749317 292.062011 
L 353.08647 292.989283 
L 351.386057 293.795216 
L 349.648594 294.478828 
L 347.874611 295.039286 
L 346.064649 295.475907 
L 344.219258 295.788161 
L 342.339001 295.975665 
L 340.424451 296.038192 
L 338.47619 295.975665 
L 336.494813 295.788161 
L 334.480922 295.475907 
L 332.435132 295.039286 
L 328.250354 293.795216 
L 323.945577 292.062011 
L 319.526047 289.848116 
L 314.997148 287.164317 
L 310.364397 284.023688 
L 305.633439 280.441531 
L 300.810038 276.435298 
L 295.900071 272.024506 
L 290.909518 267.230644 
L 285.844461 262.077067 
L 280.711071 256.588884 
L 275.515602 250.792832 
L 267.619865 241.583647 
L 259.62035 231.846509 
L 251.538983 221.6881 
L 240.674811 207.681124 
L 205.274397 161.677959 
L 197.217862 151.64781 
L 189.250517 142.075065 
L 181.394198 133.064603 
L 176.228981 127.419047 
L 171.128981 122.094924 
L 166.100411 117.118173 
L 161.149397 112.513041 
L 156.281971 108.301962 
L 151.504064 104.505454 
L 146.821496 101.142013 
L 142.239973 98.228023 
L 137.765077 95.777684 
L 133.402259 93.802931 
L 129.156836 92.313386 
L 127.079769 91.752928 
L 125.033978 91.316307 
L 123.020088 91.004053 
L 121.03871 90.816549 
L 119.09045 90.754023 
L 117.175899 90.816549 
L 115.295643 91.004053 
L 113.450252 91.316307 
L 111.640289 91.752928 
L 109.866307 92.313386 
L 108.128844 92.996998 
L 106.42843 93.802931 
L 104.765584 94.730203 
L 103.140811 95.777684 
L 101.554607 96.944098 
L 100.007455 98.228023 
L 97.032179 101.142013 
L 94.218609 104.505454 
L 91.570172 108.301962 
L 89.090095 112.513041 
L 86.781399 117.118173 
L 84.646897 122.094924 
L 82.689191 127.419047 
L 80.910664 133.064603 
L 79.313484 139.004089 
L 77.899597 145.208567 
L 76.670726 151.64781 
L 75.628367 158.290447 
L 74.77379 165.104114 
L 74.108038 172.055618 
L 73.63192 179.11109 
L 73.346017 186.236157 
L 73.250677 193.396107 
L 73.346017 200.556057 
L 73.63192 207.681124 
L 74.108038 214.736596 
L 74.77379 221.6881 
L 75.628367 228.501767 
L 76.670726 235.144404 
L 77.899597 241.583647 
L 79.313484 247.788125 
L 80.910664 253.727611 
L 82.689191 259.373167 
L 84.646897 264.69729 
L 86.781399 269.674041 
L 89.090095 274.279173 
L 91.570172 278.490252 
L 94.218609 282.28676 
L 97.032179 285.650202 
L 100.007455 288.564191 
L 101.554607 289.848116 
L 103.140811 291.01453 
L 104.765584 292.062011 
L 106.42843 292.989283 
L 108.128844 293.795216 
L 109.866307 294.478828 
L 111.640289 295.039286 
L 113.450252 295.475907 
L 115.295643 295.788161 
L 117.175899 295.975665 
L 119.09045 296.038192 
L 121.03871 295.975665 
L 123.020088 295.788161 
L 125.033978 295.475907 
L 127.079769 295.039286 
L 131.264547 293.795216 
L 135.569323 292.062011 
L 139.988853 289.848116 
L 144.517752 287.164317 
L 149.150503 284.023688 
L 153.881461 280.441531 
L 158.704862 276.435298 
L 163.61483 272.024506 
L 168.605382 267.230644 
L 173.670439 262.077067 
L 178.803829 256.588884 
L 183.999298 250.792832 
L 191.895035 241.583647 
L 199.89455 231.846509 
L 207.975917 221.6881 
L 218.84009 207.681124 
L 254.240504 161.677959 
L 262.297038 151.64781 
L 270.264384 142.075065 
L 278.120703 133.064603 
L 283.285919 127.419047 
L 288.385919 122.094924 
L 293.41449 117.118173 
L 298.365504 112.513041 
L 303.232929 108.301962 
L 308.010837 104.505454 
L 312.693404 101.142013 
L 317.274927 98.228023 
L 321.749823 95.777684 
L 326.112641 93.802931 
L 330.358065 92.313386 
L 332.435132 91.752928 
L 334.480922 91.316307 
L 336.494813 91.004053 
L 338.47619 90.816549 
L 340.424451 90.754023 
L 342.339001 90.816549 
L 344.219258 91.004053 
L 346.064649 91.316307 
L 347.874611 91.752928 
L 349.648594 92.313386 
L 351.386057 92.996998 
L 353.08647 93.802931 
L 354.749317 94.730203 
L 356.374089 95.777684 
L 357.960293 96.944098 
L 359.507445 98.228023 
L 362.482721 101.142013 
L 365.296291 104.505454 
L 367.944729 108.301962 
L 370.424806 112.513041 
L 372.733502 117.118173 
L 374.868003 122.094924 
L 376.82571 127.419047 
L 378.604236 133.064603 
L 380.201416 139.004089 
L 381.615303 145.208567 
L 382.844175 151.64781 
L 383.886534 158.290447 
L 384.74111 165.104114 
L 385.406863 172.055618 
L 385.88298 179.11109 
L 386.168883 186.236157 
L 386.264223 193.396107 
L 386.168883 200.556057 
L 385.88298 207.681124 
L 385.406863 214.736596 
L 384.74111 221.6881 
L 383.886534 228.501767 
L 382.844175 235.144404 
L 381.615303 241.583647 
L 380.201416 247.788125 
L 378.604236 253.727611 
L 376.82571 259.373167 
L 374.868003 264.69729 
L 372.733502 269.674041 
L 370.424806 274.279173 
L 367.944729 278.490252 
L 365.296291 282.28676 
L 362.482721 285.650202 
L 359.507445 288.564191 
L 357.960293 289.848116 
L 356.374089 291.01453 
L 354.749317 292.062011 
L 353.08647 292.989283 
L 351.386057 293.795216 
L 349.648594 294.478828 
L 347.874611 295.039286 
L 346.064649 295.475907 
L 344.219258 295.788161 
L 342.339001 295.975665 
L 340.424451 296.038192 
L 338.47619 295.975665 
L 336.494813 295.788161 
L 334.480922 295.475907 
L 332.435132 295.039286 
L 328.250354 293.795216 
L 323.945577 292.062011 
L 319.526047 289.848116 
L 314.997148 287.164317 
L 310.364397 284.023688 
L 305.633439 280.441531 
L 300.810038 276.435298 
L 295.900071 272.024506 
L 290.909518 267.230644 
L 285.844461 262.077067 
L 280.711071 256.588884 
L 275.515602 250.792832 
L 267.619865 241.583647 
L 259.62035 231.846509 
L 251.538983 221.6881 
L 240.674811 207.681124 
L 205.274397 161.677959 
L 197.217862 151.64781 
L 189.250517 142.075065 
L 181.394198 133.064603 
L 176.228981 127.419047 
L 171.128981 122.094924 
L 166.100411 117.118173 
L 161.149397 112.513041 
L 156.281971 108.301962 
L 151.504064 104.505454 
L 146.821496 101.142013 
L 142.239973 98.228023 
L 137.765077 95.777684 
L 133.402259 93.802931 
L 129.156836 92.313386 
L 127.079769 91.752928 
L 125.033978 91.316307 
L 123.020088 91.004053 
L 121.03871 90.816549 
L 119.09045 90.754023 
L 117.175899 90.816549 
L 115.295643 91.004053 
L 113.450252 91.316307 
L 111.640289 91.752928 
L 109.866307 92.313386 
L 108.128844 92.996998 
L 106.42843 93.802931 
L 104.765584 94.730203 
L 103.140811 95.777684 
L 101.554607 96.944098 
L 100.007455 98.228023 
L 97.032179 101.142013 
L 94.218609 104.505454 
L 91.570172 108.301962 
L 89.090095 112.513041 
L 86.781399 117.118173 
L 84.646897 122.094924 
L 82.689191 127.419047 
L 80.910664 133.064603 
L 79.313484 139.004089 
L 77.899597 145.208567 
L 76.670726 151.64781 
L 75.628367 158.290447 
L 74.77379 165.104114 
L 74.108038 172.055618 
L 73.63192 179.11109 
L 73.346017 186.236157 
L 73.250677 193.396107 
L 73.346017 200.556057 
L 73.63192 207.681124 
L 74.108038 214.736596 
L 74.77379 221.6881 
L 75.628367 228.501767 
L 76.670726 235.144404 
L 77.899597 241.583647 
L 79.313484 247.788125 
L 80.910664 253.727611 
L 82.689191 259.373167 
L 84.646897 264.69729 
L 86.781399 269.674041 
L 89.090095 274.279173 
L 91.570172 278.490252 
L 94.218609 282.28676 
L 97.032179 285.650202 
L 100.007455 288.564191 
L 101.554607 289.848116 
L 103.140811 291.01453 
L 104.765584 292.062011 
L 106.42843 292.989283 
L 108.128844 293.795216 
L 109.866307 294.478828 
L 111.640289 295.039286 
L 113.450252 295.475907 
L 115.295643 295.788161 
L 117.175899 295.975665 
L 119.09045 296.038192 
L 121.03871 295.975665 
L 123.020088 295.788161 
L 125.033978 295.475907 
L 127.079769 295.039286 
L 131.264547 293.795216 
L 135.569323 292.062011 
L 139.988853 289.848116 
L 144.517752 287.164317 
L 149.150503 284.023688 
L 153.881461 280.441531 
L 158.704862 276.435298 
L 163.61483 272.024506 
L 168.605382 267.230644 
L 173.670439 262.077067 
L 178.803829 256.588884 
L 183.999298 250.792832 
L 191.895035 241.583647 
L 199.89455 231.846509 
L 207.975917 221.6881 
L 218.84009 207.681124 
L 229.75745 193.396107 
L 229.75745 193.396107 
" style="fill:none;stroke:#000000;stroke-dasharray:7.5,18;stroke-dashoffset:0;stroke-width:1.5;"/>
   </g>
   <g id="line2d_2">
    <path clip-path="url(#p1eb6a4f4db)" d="M 270.264384 142.075065 
" style="fill:none;stroke:#1f77b4;stroke-linecap:square;stroke-width:1.5;"/>
    <defs>
     <path d="M 0 7.5 
C 1.989023 7.5 3.896849 6.709753 5.303301 5.303301 
C 6.709753 3.896849 7.5 1.989023 7.5 0 
C 7.5 -1.989023 6.709753 -3.896849 5.303301 -5.303301 
C 3.896849 -6.709753 1.989023 -7.5 0 -7.5 
C -1.989023 -7.5 -3.896849 -6.709753 -5.303301 -5.303301 
C -6.709753 -3.896849 -7.5 -1.989023 -7.5 0 
C -7.5 1.989023 -6.709753 3.896849 -5.303301 5.303301 
C -3.896849 6.709753 -1.989023 7.5 0 7.5 
z
" id="mea54fe0369" style="stroke:#000000;"/>
    </defs>
    <g clip-path="url(#p1eb6a4f4db)">
     <use style="fill:#f2f2f2;stroke:#000000;" x="270.264384" xlink:href="#mea54fe0369" y="142.075065"/>
    </g>
   </g>
  </g>
 </g>
 <defs>
  <clipPath id="p1eb6a4f4db">
   <rect height="265.0032" width="357.12" x="57.6" y="41.2992"/>
  </clipPath>
 </defs>
</svg>
